<?xml version="1.0" encoding="UTF-8" standalone="no"?>
<!-- Created with Inkscape (http://www.inkscape.org/) -->
<svg
   xmlns:dc="http://purl.org/dc/elements/1.1/"
   xmlns:cc="http://creativecommons.org/ns#"
   xmlns:rdf="http://www.w3.org/1999/02/22-rdf-syntax-ns#"
   xmlns:svg="http://www.w3.org/2000/svg"
   xmlns="http://www.w3.org/2000/svg"
   xmlns:xlink="http://www.w3.org/1999/xlink"
   xmlns:sodipodi="http://sodipodi.sourceforge.net/DTD/sodipodi-0.dtd"
   xmlns:inkscape="http://www.inkscape.org/namespaces/inkscape"
   width="293.44113"
   height="196.17809"
   id="svg2"
   sodipodi:version="0.32"
   inkscape:version="0.46"
   version="1.0"
   sodipodi:docname="bratac_Bat_1.svg"
   inkscape:output_extension="org.inkscape.output.svg.inkscape"
   inkscape:export-filename="C:\joanna\Gfx\drawings_vector\admin\thumbs\bratac_Bat.png"
   inkscape:export-xdpi="33.089272"
   inkscape:export-ydpi="33.089272">
  <sodipodi:namedview
     id="base"
     pagecolor="#ffffff"
     bordercolor="#666666"
     borderopacity="1.0"
     gridtolerance="10000"
     guidetolerance="10"
     objecttolerance="10"
     inkscape:pageopacity="0.0"
     inkscape:pageshadow="2"
     inkscape:zoom="0.49513127"
     inkscape:cx="321.47338"
     inkscape:cy="417.52169"
     inkscape:document-units="px"
     inkscape:current-layer="capa1"
     showgrid="false"
     inkscape:window-width="1152"
     inkscape:window-height="778"
     inkscape:window-x="120"
     inkscape:window-y="0"
     showguides="true"
     inkscape:guide-bbox="true" />
  <defs
     id="defs4">
    <inkscape:perspective
       id="perspective10"
       inkscape:persp3d-origin="372.04724 : 350.78739 : 1"
       inkscape:vp_z="744.09448 : 526.18109 : 1"
       inkscape:vp_y="0 : 1000 : 0"
       inkscape:vp_x="0 : 526.18109 : 1"
       sodipodi:type="inkscape:persp3d" />
    <inkscape:perspective
       id="perspective8339"
       inkscape:persp3d-origin="372.04724 : 350.78739 : 1"
       inkscape:vp_z="744.09448 : 526.18109 : 1"
       inkscape:vp_y="0 : 1000 : 0"
       inkscape:vp_x="0 : 526.18109 : 1"
       sodipodi:type="inkscape:persp3d" />
    <clipPath
       id="XMLID_35_">
      <use
         xlink:href="#XMLID_5_"
         id="use259"
         x="0"
         y="0"
         width="625.992"
         height="606.15503" />
    </clipPath>
    <defs
       id="defs255">
      <rect
         id="XMLID_5_"
         x="271.81699"
         y="8.0249996"
         width="204.35699"
         height="108.188" />
    </defs>
    <inkscape:perspective
       sodipodi:type="inkscape:persp3d"
       inkscape:vp_x="0 : 526.18109 : 1"
       inkscape:vp_y="0 : 1000 : 0"
       inkscape:vp_z="744.09448 : 526.18109 : 1"
       inkscape:persp3d-origin="372.04724 : 350.78739 : 1"
       id="perspective4387" />
    <inkscape:perspective
       sodipodi:type="inkscape:persp3d"
       inkscape:vp_x="0 : 526.18109 : 1"
       inkscape:vp_y="0 : 1000 : 0"
       inkscape:vp_z="744.09448 : 526.18109 : 1"
       inkscape:persp3d-origin="372.04724 : 350.78739 : 1"
       id="perspective5470" />
    <inkscape:perspective
       id="perspective3090"
       inkscape:persp3d-origin="312.996 : 202.05168 : 1"
       inkscape:vp_z="625.992 : 303.07751 : 1"
       inkscape:vp_y="0 : 1000 : 0"
       inkscape:vp_x="0 : 303.07751 : 1"
       sodipodi:type="inkscape:persp3d" />
    <inkscape:perspective
       id="perspective2446"
       inkscape:persp3d-origin="372.04724 : 350.78739 : 1"
       inkscape:vp_z="744.09448 : 526.18109 : 1"
       inkscape:vp_y="0 : 1000 : 0"
       inkscape:vp_x="0 : 526.18109 : 1"
       sodipodi:type="inkscape:persp3d" />
  </defs>
  <metadata
     id="metadata7">
    <rdf:RDF>
      <cc:Work
         rdf:about="">
        <dc:format>image/svg+xml</dc:format>
        <dc:type
           rdf:resource="http://purl.org/dc/dcmitype/StillImage" />
      </cc:Work>
    </rdf:RDF>
  </metadata>
  <g
     id="capa1"
     inkscape:groupmode="layer"
     inkscape:label="Capa 1"
     transform="translate(-187.99529,-277.95201)">
    <g
       id="g10918"
       transform="matrix(1.72367,0,0,1.72367,-607.493,-522.366)">
      <rect
         transform="matrix(-0.755523,0.655123,0.655123,0.755523,0,0)"
         ry="1.5649158"
         rx="7.1679139"
         y="784.77295"
         x="-61.504799"
         height="12.52639"
         width="1.7684315"
         id="rect4383"
         style="fill:#784421;fill-opacity:1;stroke:none;stroke-width:3;stroke-linecap:round;stroke-linejoin:round;stroke-miterlimit:4;stroke-dasharray:none;stroke-dashoffset:0;stroke-opacity:1" />
      <rect
         transform="matrix(0.755523,0.655123,-0.655123,0.755523,0,0)"
         ry="1.5649158"
         rx="7.1679139"
         y="67.187462"
         x="761.55438"
         height="12.52639"
         width="1.7684315"
         id="rect4381"
         style="fill:#784421;fill-opacity:1;stroke:none;stroke-width:3;stroke-linecap:round;stroke-linejoin:round;stroke-miterlimit:4;stroke-dasharray:none;stroke-dashoffset:0;stroke-opacity:1" />
      <path
         sodipodi:nodetypes="ccccccccccccccc"
         id="path4348"
         d="M 562.89944,464.31046 C 550.85427,472.18067 551.51973,478.1233 549.82996,491.46556 C 550.1661,477.65507 546.71255,468.99497 540.0406,464.52861 C 529.82858,469.58788 528.6926,484.41267 531.59551,500.52744 C 506.30713,489.15938 461.11636,508.51075 461.51103,528.10714 C 467.16677,526.6341 474.29403,530.16038 479.49874,534.50663 C 489.2781,532.41542 500.48001,533.42119 506.23763,543.96973 C 516.25149,538.508 526.07286,549.9194 528.80207,553.58736 C 530.42197,569.8624 533.74732,573.03605 541.28412,578.12464 C 552.27887,575.1298 559.79759,564.56283 563.6304,555.99651 C 568.38848,549.09321 577.70431,548.96367 586.39402,553.3123 C 593.07332,543.32186 602.38394,545.17484 611.9367,548.13357 C 617.50977,544.27097 625.40288,541.6935 631.75053,545.51576 C 626.76863,510.51713 596.01814,502.04639 567.86064,500.31492 C 573.74938,491.64396 569.65818,473.37779 562.89944,464.31046 z"
         style="fill:#d8bc78;fill-opacity:1;fill-rule:evenodd;stroke:none;stroke-width:0.54761398px;stroke-linecap:butt;stroke-linejoin:miter;stroke-opacity:1" />
      <path
         sodipodi:nodetypes="cccccc"
         id="path4393"
         d="M 627.01422,540.10144 C 612.39389,510.94285 591.99249,505.55777 569.81799,505.34835 C 569.19246,520.55524 562.44362,540.50904 545.57941,555.94557 C 553.7886,550.67812 576.98706,541.63474 584.518,548.68418 C 589.44101,545.40178 594.08261,537.25322 611.53863,543.56167 C 616.37068,537.01661 622.08596,540.20829 627.01422,540.10144 z"
         style="fill:#af9357;fill-opacity:1;fill-rule:evenodd;stroke:none;stroke-width:1px;stroke-linecap:butt;stroke-linejoin:miter;stroke-opacity:1" />
      <path
         sodipodi:nodetypes="csccccc"
         id="path4391"
         d="M 465.6806,524.00034 C 478.29147,507.75891 490.93698,501.63714 503.71549,500.14769 C 512.40136,499.13527 521.14868,500.2631 529.98834,501.80787 C 527.84434,516.87585 529.82296,537.78794 543.60644,556.02811 C 536.48924,549.3586 515.97649,534.06993 507.29149,539.63594 C 503.04575,535.51479 497.6096,528.27726 479.29871,531.31377 C 475.73441,524.00061 470.50768,524.9996 465.6806,524.00034 z"
         style="fill:#af9357;fill-opacity:1;fill-rule:evenodd;stroke:none;stroke-width:1px;stroke-linecap:butt;stroke-linejoin:miter;stroke-opacity:1" />
      <g
         transform="matrix(0.303515,0,0,0.303515,437.436,416.178)"
         style="stroke:#784421;stroke-width:3;stroke-linecap:round;stroke-miterlimit:4;stroke-dasharray:none"
         id="g4361">
        <path
           style="fill:none;fill-rule:evenodd;stroke:#784421;stroke-width:3;stroke-linecap:round;stroke-linejoin:miter;stroke-miterlimit:4;stroke-dasharray:none;stroke-opacity:1"
           d="M 137.94644,387.74088 C 138.78678,332.70968 206.12737,280.47068 221.36758,267.03203"
           id="path4357"
           sodipodi:nodetypes="cc" />
        <path
           style="fill:none;fill-rule:evenodd;stroke:#784421;stroke-width:3;stroke-linecap:round;stroke-linejoin:miter;stroke-miterlimit:4;stroke-dasharray:none;stroke-opacity:1"
           d="M 226.04361,420.8174 C 239.68321,384.07086 249.68482,332.57431 223.02936,267.03203"
           id="path4359"
           sodipodi:nodetypes="cc" />
      </g>
      <path
         sodipodi:nodetypes="cc"
         id="path4367"
         d="M 586.47626,553.13881 C 578.7787,538.3133 582.61844,520.61115 587.69141,503.79185"
         style="fill:none;fill-rule:evenodd;stroke:#502d16;stroke-width:0.91054499;stroke-linecap:round;stroke-linejoin:miter;stroke-miterlimit:4;stroke-dasharray:none;stroke-opacity:1" />
      <path
         sodipodi:nodetypes="cc"
         id="path4369"
         d="M 612.14711,548.13395 C 610.50175,536.35163 604.41372,517.46776 587.85604,503.79185"
         style="fill:none;fill-rule:evenodd;stroke:#502d16;stroke-width:0.91054499;stroke-linecap:round;stroke-linejoin:miter;stroke-miterlimit:4;stroke-dasharray:none;stroke-opacity:1" />
      <path
         transform="matrix(0.303515,0,0,0.303515,437.436,416.178)"
         sodipodi:open="true"
         sodipodi:end="6.2008288"
         sodipodi:start="0"
         d="M 352.89386,288.06354 A 6.3996296,6.3996296 0 1 1 352.87217,287.53708"
         sodipodi:ry="6.3996296"
         sodipodi:rx="6.3996296"
         sodipodi:cy="288.06354"
         sodipodi:cx="346.49423"
         id="path4375"
         style="fill:#d40000;fill-opacity:1;stroke:none;stroke-width:10;stroke-linecap:round;stroke-linejoin:round;stroke-miterlimit:4;stroke-dasharray:none;stroke-dashoffset:0;stroke-opacity:1"
         sodipodi:type="arc" />
      <path
         transform="matrix(0.303515,0,0,0.303515,449.723,416.931)"
         sodipodi:open="true"
         sodipodi:end="6.2008288"
         sodipodi:start="0"
         d="M 352.89386,288.06354 A 6.3996296,6.3996296 0 1 1 352.87217,287.53708"
         sodipodi:ry="6.3996296"
         sodipodi:rx="6.3996296"
         sodipodi:cy="288.06354"
         sodipodi:cx="346.49423"
         id="path4379"
         style="fill:#d40000;fill-opacity:1;stroke:none;stroke-width:10;stroke-linecap:round;stroke-linejoin:round;stroke-miterlimit:4;stroke-dasharray:none;stroke-dashoffset:0;stroke-opacity:1"
         sodipodi:type="arc" />
      <path
         sodipodi:nodetypes="cccc"
         id="path4387"
         d="M 539.88115,473.8093 C 531.71246,475.60922 531.4036,493.75851 533.17998,498.55496 C 537.26058,496.60063 542.76378,497.96601 546.99412,496.88902 C 547.0188,486.32189 545.62003,478.51384 539.88115,473.8093 z"
         style="fill:#ffb380;fill-rule:evenodd;stroke:none;stroke-width:1px;stroke-linecap:butt;stroke-linejoin:miter;stroke-opacity:1" />
      <path
         sodipodi:nodetypes="cccc"
         id="path4389"
         d="M 562.49081,473.89437 C 554.69124,477.28139 551.39744,491.98925 552.18501,497.04308 C 556.57265,495.93883 560.87644,499.58408 565.23645,499.36944 C 568.81182,491.21515 570.16783,480.28917 562.49081,473.89437 z"
         style="fill:#ffb380;fill-rule:evenodd;stroke:none;stroke-width:1px;stroke-linecap:butt;stroke-linejoin:miter;stroke-opacity:1" />
      <path
         sodipodi:nodetypes="cccc"
         id="path4385"
         d="M 534.9941,518.95255 C 543.97561,526.81619 554.09784,523.69877 561.96268,521.01572 C 561.39472,542.58532 549.9258,550.50624 544.13099,558.74226 C 536.99992,548.10877 530.76105,538.67733 534.9941,518.95255 z"
         style="fill:#e9c6af;fill-rule:evenodd;stroke:none;stroke-width:1px;stroke-linecap:butt;stroke-linejoin:miter;stroke-opacity:1" />
      <path
         transform="matrix(0.475734,0,0,0.475734,383.476,376.154)"
         sodipodi:open="true"
         sodipodi:end="6.2008288"
         sodipodi:start="0"
         d="M 352.89386,288.06354 A 6.3996296,6.3996296 0 1 1 352.87217,287.53708"
         sodipodi:ry="6.3996296"
         sodipodi:rx="6.3996296"
         sodipodi:cy="288.06354"
         sodipodi:cx="346.49423"
         id="path10916"
         style="fill:#d40000;fill-opacity:1;stroke:none;stroke-width:10;stroke-linecap:round;stroke-linejoin:round;stroke-miterlimit:4;stroke-dasharray:none;stroke-dashoffset:0;stroke-opacity:1"
         sodipodi:type="arc" />
    </g>
  </g>
</svg>
