<?xml version="1.0" encoding="UTF-8" standalone="no"?>
<!-- Created with Inkscape (http://www.inkscape.org/) -->
<svg
   xmlns:i="http://ns.adobe.com/AdobeIllustrator/10.0/"
   xmlns:dc="http://purl.org/dc/elements/1.1/"
   xmlns:cc="http://creativecommons.org/ns#"
   xmlns:rdf="http://www.w3.org/1999/02/22-rdf-syntax-ns#"
   xmlns:svg="http://www.w3.org/2000/svg"
   xmlns="http://www.w3.org/2000/svg"
   xmlns:sodipodi="http://sodipodi.sourceforge.net/DTD/sodipodi-0.dtd"
   xmlns:inkscape="http://www.inkscape.org/namespaces/inkscape"
   width="53.15435"
   height="257.79163"
   id="svg12584"
   sodipodi:version="0.32"
   inkscape:version="0.46dev+devel"
   sodipodi:docbase="/home/nathan/img/svg"
   sodipodi:docname="eady_Grass_Clump_01.svg"
   inkscape:output_extension="org.inkscape.output.svg.inkscape"
   version="1.0">
  <defs
     id="defs12586" />
  <sodipodi:namedview
     id="base"
     pagecolor="#ffffff"
     bordercolor="#666666"
     borderopacity="1.0"
     inkscape:pageopacity="0.0"
     inkscape:pageshadow="2"
     inkscape:zoom="1.4805556"
     inkscape:cx="360"
     inkscape:cy="180"
     inkscape:document-units="px"
     inkscape:current-layer="layer1"
     inkscape:window-width="1280"
     inkscape:window-height="744"
     inkscape:window-x="-4"
     inkscape:window-y="-4"
     showgrid="false" />
  <metadata
     id="metadata12589">
    <rdf:RDF>
      <cc:Work
         rdf:about="">
        <dc:format>image/svg+xml</dc:format>
        <dc:type
           rdf:resource="http://purl.org/dc/dcmitype/StillImage" />
        <dc:title>Grass Blades and Clumps</dc:title>
        <dc:date>2006 September</dc:date>
        <dc:creator>
          <cc:Agent>
            <dc:title>Nathan Eady</dc:title>
          </cc:Agent>
        </dc:creator>
        <dc:rights>
          <cc:Agent>
            <dc:title>Galion Public Library</dc:title>
          </cc:Agent>
        </dc:rights>
        <dc:publisher>
          <cc:Agent>
            <dc:title>Open Clip Art Library</dc:title>
          </cc:Agent>
        </dc:publisher>
        <cc:license
           rdf:resource="http://web.resource.org/cc/PublicDomain" />
        <dc:subject>
          <rdf:Bag>
            <rdf:li>grass</rdf:li>
          </rdf:Bag>
        </dc:subject>
      </cc:Work>
      <cc:License
         rdf:about="http://web.resource.org/cc/PublicDomain">
        <cc:permits
           rdf:resource="http://web.resource.org/cc/Reproduction" />
        <cc:permits
           rdf:resource="http://web.resource.org/cc/Distribution" />
        <cc:permits
           rdf:resource="http://web.resource.org/cc/DerivativeWorks" />
      </cc:License>
    </rdf:RDF>
  </metadata>
  <g
     inkscape:label="Layer 1"
     inkscape:groupmode="layer"
     id="layer1"
     transform="translate(-36.125333,-51.628827)">
    <g
       id="g12570"
       transform="matrix(1.400656,0,0,1.400656,-304.0924,-1417.235)">
      <g
         transform="matrix(-1,0,0,1,575.7899,262.7948)"
         id="g12526">
        <path
           clip-rule="evenodd"
           d="M 309.40116,832.065 C 308.33588,824.42589 307.07923,818.68339 305.53536,814.45873 C 303.9789,810.18347 302.23746,807.80552 300.19001,806.9454 C 301.74008,816.33073 302.69054,823.3887 303.0669,828.80304 C 303.41774,834.06349 302.20574,834.0143 302.40987,838.59313 C 302.61399,843.12066 304.62335,845.85348 304.30441,855.87124 C 303.94081,865.9396 300.36862,883.52128 300.35586,898.26965 C 300.33672,912.91683 303.32205,931.20614 304.22148,943.29897 C 305.09539,955.26397 305.56105,964.06887 305.61864,969.91117 L 313.33695,969.91117 C 314.86168,948.25797 315.793,931.23214 316.22677,917.77393 C 316.62864,904.41691 316.94103,904.31572 315.81214,890.0473 C 314.65738,875.60249 312.54596,856.60346 309.40116,832.065 z"
           i:knockout="Off"
           id="path12528"
           style="fill:#61a121;fill-rule:evenodd" />
        <path
           clip-rule="evenodd"
           d="M 312.59681,969.25267 C 313.90467,957.64187 314.85495,946.45977 315.4737,935.12657 C 316.0735,923.71741 316.40502,911.55007 316.24537,901.76069 C 316.06056,891.9959 315.14838,884.60906 314.46584,876.96855 C 313.76398,869.25285 313.09437,864.21797 312.11184,855.99702 C 311.10397,847.62359 309.82837,835.0255 308.55241,827.76515 C 307.25111,820.57999 305.79689,816.20425 304.46352,812.99148 C 303.11757,809.67752 301.86731,808.18498 300.61704,808.23557 C 302.1416,817.46911 303.01551,824.45049 303.35997,829.38488 C 303.64702,834.24198 302.53709,835.22717 302.54347,837.60583 C 302.56899,839.90719 303.11757,841.22335 303.50031,843.50082 C 303.85115,845.77618 304.62938,847.4711 304.65489,851.31701 C 304.66765,855.08562 304.11906,860.04461 303.55134,866.19187 C 302.9581,872.38973 301.57388,880.83905 301.14649,888.1254 C 300.70635,895.30915 300.47033,901.05166 300.95512,909.3492 C 301.43354,917.72263 303.21326,929.53721 303.98511,937.55647 C 304.7442,945.42327 305.10779,950.98867 305.47139,956.40307 C 305.81585,961.76537 305.99446,966.09127 306.03274,969.58297 L 305.04383,969.58297 C 304.99918,962.55027 304.78229,955.99827 304.36766,949.44627 C 303.9339,942.89427 303.22584,937.27817 302.58795,930.75149 C 301.93092,924.07298 300.96132,916.71144 300.56583,910.3358 C 300.17672,903.93626 299.99811,899.00187 300.27878,892.9052 C 300.5467,886.70734 301.54181,879.82716 302.15418,874.00876 C 302.73466,868.16506 303.43634,862.0424 303.79356,858.37498 C 304.13164,854.68156 304.41232,854.37729 304.22095,851.89815 C 304.01682,849.26722 302.98982,845.72629 302.63898,843.11996 C 302.269,840.48903 302.00109,838.61702 302.0585,836.44145 C 302.10953,834.24128 303.05361,832.90052 302.97068,829.96462 C 302.85586,826.87904 302.00747,822.83216 301.4844,818.70728 C 300.9677,814.60911 300.43825,810.25866 299.89605,805.55264 C 301.54181,806.03329 303.10464,808.00649 304.61006,811.47223 C 306.12824,814.93797 307.53816,818.75788 308.89031,826.2459 C 310.21092,833.70792 311.3143,844.96666 312.54561,855.71665 C 313.77036,866.39284 315.50524,879.74986 316.20055,889.84281 C 316.88309,899.78468 316.8193,904.69308 316.62793,915.39246 C 316.39847,926.16915 315.49249,944.40927 314.9439,953.71867 C 314.39531,962.82507 313.85966,968.18877 313.33641,969.90827 C 313.09455,969.70877 312.84577,969.48107 312.59681,969.25267 z"
           i:knockout="Off"
           stroke-miterlimit="10"
           id="path12530"
           style="fill-rule:evenodd;stroke:#000000;stroke-width:0.01270314;stroke-miterlimit:10" />
      </g>
      <g
         transform="matrix(-0.993851,0.110723,0.110723,0.993851,507.2766,208.5825)"
         id="g12532">
        <path
           clip-rule="evenodd"
           d="M 353.87534,988.06482 C 355.39352,978.85658 356.73947,969.74952 357.98956,960.3396 C 359.22707,950.82708 360.98765,943.41565 361.27488,931.95524 C 361.5171,920.41963 360.34356,902.63487 359.5524,892.16175 C 358.75503,881.73923 356.93704,881.56215 356.50966,869.67309 C 356.06951,857.60624 356.19709,841.59299 356.91808,820.74795 C 355.01699,828.0083 353.84345,835.95168 353.30124,844.88165 C 352.77179,853.86222 353.87534,865.54961 353.70967,873.89775 C 353.51174,882.1194 352.31871,886.39465 352.14683,894.13565 C 351.97443,901.82535 352.85489,910.40187 352.64421,919.96428 C 352.38923,929.45079 350.55211,939.51915 350.74985,950.95357 C 350.9538,962.38869 351.98718,974.53143 353.87534,988.06482 z"
           i:knockout="Off"
           id="path12534"
           style="fill:#61a121;fill-rule:evenodd" />
        <path
           clip-rule="evenodd"
           d="M 352.28699,977.92128 C 350.95398,968.53665 350.26488,959.73176 350.22023,950.82708 C 350.17557,941.89781 351.63014,931.49988 352.00012,925.10035 C 352.31889,918.69941 352.33165,917.814 352.28699,912.88101 C 352.22958,907.84683 351.6748,900.20773 351.75754,895.52771 C 351.84065,890.89829 352.4656,888.92509 352.77197,885.23168 C 353.05884,881.41177 353.36521,877.61717 353.44158,873.16483 C 353.46089,868.612 353.1609,863.07117 353.05884,858.49235 C 352.96334,853.88822 352.5806,850.92843 352.86747,846.09663 C 353.14815,841.16364 353.94551,834.10567 354.69202,829.50155 C 355.41922,824.89743 356.22934,821.43168 357.19238,818.82605 C 357.10307,822.19061 357.00757,826.41527 356.9055,831.60123 C 356.79068,836.78719 356.55466,842.85857 356.56742,849.71416 C 356.56122,856.46856 356.53553,865.92978 356.95636,871.84936 C 357.3965,877.66776 358.46834,879.94523 359.06778,884.42216 C 359.61672,888.79931 359.93531,892.46743 360.31822,898.15934 C 360.71371,903.87585 361.173,911.89512 361.3773,918.32065 C 361.54315,924.56981 361.83002,929.14793 361.3773,935.87703 C 360.8925,942.60614 359.55275,951.30773 358.58971,958.46759 C 357.6265,965.60005 356.6569,972.05229 355.65524,978.30004 C 355.59162,976.80819 355.80851,974.17727 356.28055,970.10368 C 356.75879,966.00551 357.81786,958.97284 358.49403,954.06515 C 359.14468,949.15886 359.76308,946.50123 360.17806,940.73413 C 360.567,934.81454 360.90526,926.16284 360.84767,919.18076 C 360.76457,912.17268 360.12685,904.48298 359.74394,899.14524 C 359.33587,893.78149 359.01054,890.99807 358.49385,887.28006 C 357.95147,883.43416 357.03928,881.66404 356.61845,876.60527 C 356.20347,871.59569 356.01866,866.05556 356.03779,857.15088 C 356.03779,848.04383 356.28657,836.86238 356.71396,822.82234 C 355.47007,828.71663 354.58978,834.05437 354.02223,839.41742 C 353.46089,844.62868 353.30142,849.13161 353.34607,854.29228 C 353.36503,859.37705 354.2517,864.03177 354.16239,870.30552 C 354.04757,876.57927 353.05866,886.82471 352.77179,891.68181 C 352.49112,896.46371 352.42751,894.86998 352.47836,898.91756 C 352.52301,902.91455 353.02075,909.97111 352.96316,915.51194 C 352.8673,920.90028 352.32527,926.13614 351.99994,931.52588 C 351.6491,936.83763 351.04931,942.04889 350.9919,947.7401 C 350.94104,953.40671 351.47669,960.49068 351.71271,965.57545 C 351.93598,970.63493 352.10218,974.65721 352.28699,977.92128 z"
           i:knockout="Off"
           stroke-miterlimit="10"
           id="path12536"
           style="fill-rule:evenodd;stroke:#000000;stroke-width:0.01270314;stroke-miterlimit:10" />
      </g>
      <g
         transform="matrix(1,0,0,1.418268,67.85149,-277.8393)"
         id="g12538">
        <path
           clip-rule="evenodd"
           d="M 196.01782,1033.7627 C 196.66209,1021.3417 196.93,1010.2361 196.84707,999.86423 C 196.75777,989.44172 196.66847,981.24537 195.45009,972.06242 C 194.17431,962.85418 192.11392,951.21738 189.39013,945.2472 C 186.64719,939.32761 183.30464,936.46901 179.19025,936.67209 C 180.35121,938.26583 181.66526,942.33871 183.20896,948.78954 C 184.75266,955.26496 187.11286,961.05806 188.3695,975.35108 C 189.59425,989.64551 190.30869,1008.8202 190.53833,1033.7634 C 192.3627,1033.7627 194.18707,1033.7627 196.01782,1033.7627 z"
           i:knockout="Off"
           stroke-miterlimit="10"
           id="path12540"
           style="fill:#61a121;fill-rule:evenodd;stroke:#000000;stroke-width:0.01270314;stroke-miterlimit:10" />
        <path
           clip-rule="evenodd"
           d="M 190.28317,1034.5216 C 190.34696,1022.6565 190.16835,1011.754 189.77286,1001.1291 C 189.35823,990.45292 188.94998,980.0564 187.85919,971.3028 C 186.72374,962.55061 184.70163,955.03799 183.14517,949.04111 C 181.5951,942.99503 180.10243,938.5434 178.61614,935.40582 C 180.03864,935.17814 181.56958,935.68409 183.20896,936.92366 C 184.8611,938.08734 186.77477,939.52999 188.43329,942.71676 C 190.06629,946.00542 191.7567,951.19209 192.96232,956.12437 C 194.13604,960.98147 194.83134,966.09154 195.51388,971.55648 C 196.19005,976.94482 196.69398,981.82651 196.97465,988.25275 C 197.22343,994.62769 197.21705,1001.7362 197.10223,1009.4765 C 196.97465,1017.1416 196.70674,1025.1855 196.27297,1034.015 L 195.76904,1033.7627 C 196.22194,1026.1482 196.49623,1018.5843 196.59192,1010.4898 C 196.67484,1002.42 196.91724,994.19693 196.33676,985.72371 C 195.71801,977.1732 194.42947,966.75068 193.0899,959.91968 C 191.76308,953.03809 190.56385,948.81343 188.43329,944.99423 C 186.27722,941.19962 183.5917,938.59469 180.27466,937.17804 C 181.43562,940.26362 182.57745,943.98304 183.77668,948.53656 C 184.97592,953.06409 186.46221,959.00827 187.34887,964.21953 C 188.21003,969.25371 188.47794,973.35189 188.9436,979.14499 C 189.39013,984.91349 189.70269,989.56751 190.02802,998.85233 C 190.34696,1008.1864 190.61488,1019.8484 190.85728,1034.5216 C 190.66591,1034.5216 190.47454,1034.5216 190.28317,1034.5216 z"
           i:knockout="Off"
           stroke-miterlimit="10"
           id="path12542"
           style="fill-rule:evenodd;stroke:#000000;stroke-width:0.01270314;stroke-miterlimit:10" />
      </g>
      <g
         transform="matrix(-0.998445,-5.575387e-2,-5.575387e-2,0.998445,592.3245,241.6484)"
         id="g12394">
        <path
           clip-rule="evenodd"
           d="M 269.46926,964.75037 C 270.25386,957.64251 270.11353,947.69994 269.02273,934.34362 C 267.90642,920.88542 265.9162,904.84618 262.93087,885.16552 C 262.51624,894.29787 262.35677,904.46812 262.47797,916.45767 C 262.61193,928.37344 262.98828,943.42538 263.60704,956.25116 C 264.18114,969.02633 264.9785,980.8648 265.97361,992.45171 C 267.13457,983.21746 268.30192,973.98462 269.46926,964.75037 z"
           i:knockout="Off"
           id="path12396"
           style="fill:#61a121;fill-rule:evenodd" />
        <path
           clip-rule="evenodd"
           d="M 270.3623,959.16035 C 270.45161,953.79661 270.23473,947.21999 269.61597,939.12342 C 268.98446,930.95307 267.88091,920.15039 266.71995,910.81636 C 265.53985,901.43173 264.25131,892.44976 262.70761,883.394 C 262.50986,884.91184 262.42694,889.92072 262.4078,898.72491 C 262.39504,907.5277 262.36315,924.42565 262.63106,935.86147 C 262.8926,947.19399 263.39653,956.50343 263.97063,966.52119 C 264.51922,976.48836 265.19539,985.79779 265.97361,995.13323 L 266.49668,991.89587 C 265.53347,981.21967 264.77438,970.79715 264.1939,960.04647 C 263.58152,949.32038 263.19241,939.78326 263.00104,927.91809 C 262.80967,915.85124 262.83519,903.10136 263.07759,888.70645 C 264.71059,898.8767 266.02464,908.66608 267.08992,918.48217 C 268.14244,928.29825 268.90153,939.80786 269.39271,947.06821 C 269.85199,954.20207 270.04336,958.85608 269.91578,961.23474 C 270.0625,960.55101 270.20921,959.86868 270.3623,959.16035 z"
           i:knockout="Off"
           stroke-miterlimit="10"
           id="path12398"
           style="fill-rule:evenodd;stroke:#000000;stroke-width:0.01270314;stroke-miterlimit:10" />
      </g>
    </g>
  </g>
</svg>
