<?xml version="1.0" encoding="UTF-8" standalone="no"?>
<!-- Created with Inkscape (http://www.inkscape.org/) -->
<svg
   xmlns:dc="http://purl.org/dc/elements/1.1/"
   xmlns:cc="http://web.resource.org/cc/"
   xmlns:rdf="http://www.w3.org/1999/02/22-rdf-syntax-ns#"
   xmlns:svg="http://www.w3.org/2000/svg"
   xmlns="http://www.w3.org/2000/svg"
   xmlns:xlink="http://www.w3.org/1999/xlink"
   xmlns:sodipodi="http://sodipodi.sourceforge.net/DTD/sodipodi-0.dtd"
   xmlns:inkscape="http://www.inkscape.org/namespaces/inkscape"
   width="677.20001"
   height="551.72998"
   id="svg2614"
   sodipodi:version="0.32"
   inkscape:version="0.45.1"
   sodipodi:docbase="/Users/johnolsen/Desktop"
   sodipodi:docname="jilagan_Ladybug.svg"
   inkscape:output_extension="org.inkscape.output.svg.inkscape"
   version="1.0">
  <defs
     id="defs2616">
    <linearGradient
       id="linearGradient5631">
      <stop
         style="stop-color:#000000;stop-opacity:1;"
         offset="0"
         id="stop5633" />
      <stop
         style="stop-color:#000000;stop-opacity:0.49803922;"
         offset="1"
         id="stop5635" />
    </linearGradient>
    <linearGradient
       id="linearGradient4644">
      <stop
         style="stop-color:#000000;stop-opacity:1;"
         offset="0"
         id="stop4646" />
      <stop
         style="stop-color:#000000;stop-opacity:0.49803922;"
         offset="1"
         id="stop4648" />
    </linearGradient>
    <linearGradient
       id="linearGradient4622">
      <stop
         style="stop-color:#ffffff;stop-opacity:1;"
         offset="0"
         id="stop4624" />
      <stop
         style="stop-color:#ffffff;stop-opacity:0;"
         offset="1"
         id="stop4626" />
    </linearGradient>
    <linearGradient
       inkscape:collect="always"
       xlink:href="#linearGradient4644"
       id="linearGradient4650"
       x1="393.07828"
       y1="852.05359"
       x2="393.07828"
       y2="1265.483"
       gradientUnits="userSpaceOnUse" />
    <linearGradient
       inkscape:collect="always"
       xlink:href="#linearGradient5631"
       id="linearGradient5637"
       x1="404.40802"
       y1="303.34601"
       x2="404.40802"
       y2="668.27924"
       gradientUnits="userSpaceOnUse" />
    <linearGradient
       inkscape:collect="always"
       xlink:href="#linearGradient4644"
       id="linearGradient5776"
       gradientUnits="userSpaceOnUse"
       x1="393.07828"
       y1="852.05359"
       x2="393.07828"
       y2="1265.483" />
    <linearGradient
       inkscape:collect="always"
       xlink:href="#linearGradient5631"
       id="linearGradient5782"
       gradientUnits="userSpaceOnUse"
       x1="404.40802"
       y1="303.34601"
       x2="404.40802"
       y2="668.27924" />
    <linearGradient
       inkscape:collect="always"
       xlink:href="#linearGradient4644"
       id="linearGradient5835"
       gradientUnits="userSpaceOnUse"
       x1="393.07828"
       y1="852.05359"
       x2="393.07828"
       y2="1265.483" />
    <linearGradient
       inkscape:collect="always"
       xlink:href="#linearGradient5631"
       id="linearGradient5841"
       gradientUnits="userSpaceOnUse"
       x1="404.40802"
       y1="303.34601"
       x2="404.40802"
       y2="668.27924" />
    <linearGradient
       inkscape:collect="always"
       xlink:href="#linearGradient5631"
       id="linearGradient5887"
       gradientUnits="userSpaceOnUse"
       x1="404.40802"
       y1="303.34601"
       x2="404.40802"
       y2="668.27924" />
    <linearGradient
       inkscape:collect="always"
       xlink:href="#linearGradient5631"
       id="linearGradient6039"
       gradientUnits="userSpaceOnUse"
       x1="404.40802"
       y1="303.34601"
       x2="404.40802"
       y2="668.27924" />
    <linearGradient
       inkscape:collect="always"
       xlink:href="#linearGradient4644"
       id="linearGradient6051"
       gradientUnits="userSpaceOnUse"
       x1="393.07828"
       y1="852.05359"
       x2="393.07828"
       y2="1265.483" />
    <linearGradient
       inkscape:collect="always"
       xlink:href="#linearGradient4644"
       id="linearGradient6066"
       gradientUnits="userSpaceOnUse"
       x1="393.07828"
       y1="852.05359"
       x2="393.07828"
       y2="1265.483" />
    <linearGradient
       inkscape:collect="always"
       xlink:href="#linearGradient5631"
       id="linearGradient6068"
       gradientUnits="userSpaceOnUse"
       x1="404.40802"
       y1="303.34601"
       x2="404.40802"
       y2="668.27924" />
    <linearGradient
       inkscape:collect="always"
       xlink:href="#linearGradient4644"
       id="linearGradient6119"
       gradientUnits="userSpaceOnUse"
       x1="393.07828"
       y1="852.05359"
       x2="393.07828"
       y2="1265.483" />
    <linearGradient
       inkscape:collect="always"
       xlink:href="#linearGradient4644"
       id="linearGradient6121"
       gradientUnits="userSpaceOnUse"
       x1="393.07828"
       y1="852.05359"
       x2="393.07828"
       y2="1265.483" />
    <linearGradient
       inkscape:collect="always"
       xlink:href="#linearGradient4644"
       id="linearGradient6123"
       gradientUnits="userSpaceOnUse"
       x1="393.07828"
       y1="852.05359"
       x2="393.07828"
       y2="1265.483" />
    <linearGradient
       inkscape:collect="always"
       xlink:href="#linearGradient5631"
       id="linearGradient6125"
       gradientUnits="userSpaceOnUse"
       x1="404.40802"
       y1="303.34601"
       x2="404.40802"
       y2="668.27924" />
    <linearGradient
       inkscape:collect="always"
       xlink:href="#linearGradient5631"
       id="linearGradient6127"
       gradientUnits="userSpaceOnUse"
       x1="404.40802"
       y1="303.34601"
       x2="404.40802"
       y2="668.27924" />
    <linearGradient
       inkscape:collect="always"
       xlink:href="#linearGradient5631"
       id="linearGradient6129"
       gradientUnits="userSpaceOnUse"
       x1="404.40802"
       y1="303.34601"
       x2="404.40802"
       y2="668.27924" />
    <radialGradient
       inkscape:collect="always"
       xlink:href="#linearGradient4622"
       id="radialGradient6131"
       gradientUnits="userSpaceOnUse"
       cx="320.71429"
       cy="518.79077"
       fx="320.71429"
       fy="518.79077"
       r="24.285715" />
    <radialGradient
       inkscape:collect="always"
       xlink:href="#linearGradient4622"
       id="radialGradient6133"
       gradientUnits="userSpaceOnUse"
       cx="320.71429"
       cy="518.79077"
       fx="320.71429"
       fy="518.79077"
       r="24.285715" />
    <filter
       inkscape:collect="always"
       id="filter6139">
      <feGaussianBlur
         inkscape:collect="always"
         stdDeviation="15.4068"
         id="feGaussianBlur6141" />
    </filter>
  </defs>
  <sodipodi:namedview
     id="base"
     pagecolor="#ffffff"
     bordercolor="#666666"
     borderopacity="1.0"
     gridtolerance="10000"
     guidetolerance="10"
     objecttolerance="10"
     inkscape:pageopacity="0.0"
     inkscape:pageshadow="2"
     inkscape:zoom="0.49497475"
     inkscape:cx="379.76514"
     inkscape:cy="512.12935"
     inkscape:document-units="px"
     inkscape:current-layer="layer1"
     inkscape:window-width="829"
     inkscape:window-height="781"
     inkscape:window-x="110"
     inkscape:window-y="145"
     width="677.2px"
     height="551.73px" />
  <metadata
     id="metadata2619">
    <rdf:RDF>
      <cc:Work
         rdf:about="">
        <dc:format>image/svg+xml</dc:format>
        <dc:type
           rdf:resource="http://purl.org/dc/dcmitype/StillImage" />
      </cc:Work>
    </rdf:RDF>
  </metadata>
  <g
     inkscape:label="Layer 1"
     inkscape:groupmode="layer"
     id="layer1"
     transform="translate(-33.2291,-297.63202)">
    <g
       id="g6143"
       transform="translate(8.0812203,22.223356)">
      <path
         transform="matrix(0.9508404,0,0,0.9508004,752.27791,-803.99015)"
         id="path6070"
         d="M -592.27906,1159.6802 C -592.49843,1159.6827 -592.71497,1159.6919 -592.93531,1159.7114 C -593.74888,1159.7836 -594.57489,1159.9582 -595.37281,1160.2739 C -599.62834,1161.9577 -601.81185,1166.6601 -600.46656,1170.9614 L -593.06031,1168.0239 C -596.23913,1173.1865 -584.28029,1188.7738 -583.56031,1193.6802 C -588.33072,1203.4987 -555.90513,1219.1377 -552.12281,1225.8677 C -551.66036,1226.2233 -551.14966,1226.4696 -550.62281,1226.6177 C -560.17846,1238.3258 -552.2739,1281.5612 -556.43531,1291.0552 C -556.46392,1293.9357 -550.13177,1299.541 -546.62281,1300.7114 C -547.33415,1302.8834 -547.87617,1305.3513 -548.34156,1308.5239 C -545.66019,1314.267 -538.85048,1322.376 -533.46656,1321.8364 C -533.16367,1321.5619 -532.86303,1321.2407 -532.56031,1320.9302 C -532.67098,1326.2254 -531.5445,1331.1092 -528.87281,1335.3364 C -532.99352,1339.9449 -536.86664,1344.8142 -540.52906,1349.8989 C -553.95192,1348.7049 -575.67795,1345.8676 -603.15406,1339.0864 C -629.8987,1332.4859 -644.68349,1348.4613 -644.99781,1353.9927 C -644.95879,1354.3724 -644.90904,1354.754 -644.84156,1355.1177 C -647.08494,1354.7209 -649.47731,1355.4967 -651.06031,1357.3677 C -651.06032,1357.3677 -663.15552,1373.3963 -688.15406,1393.7427 C -696.93014,1400.8855 -699.28253,1409.0655 -699.12281,1414.8052 C -700.52202,1415.4952 -711.35775,1420.6791 -729.65406,1424.9614 C -738.06126,1426.9292 -741.50837,1432.3942 -742.27906,1435.8364 L -746.90406,1424.9302 C -753.92925,1428.5325 -757.09424,1437.0168 -753.96656,1444.3989 C -750.83895,1451.7811 -742.53684,1455.4357 -735.06031,1452.8989 L -740.49781,1440.0552 C -731.29636,1445.3585 -704.50743,1423.751 -695.96656,1422.3052 C -678.57071,1430.183 -652.55746,1372.8025 -640.93531,1365.8989 C -640.33522,1365.0786 -639.92322,1364.1663 -639.68531,1363.2427 C -624.7203,1374.8609 -581.9416,1370.1816 -552.62281,1369.0864 C -567.13567,1395.6897 -575.62281,1426.8492 -575.62281,1460.3052 C -575.62281,1479.244 -572.96738,1497.4018 -568.21656,1514.4927 C -571.65467,1515.0369 -573.94104,1515.7564 -573.77906,1516.4614 C -607.21482,1543.5904 -634.39017,1579.7876 -629.96656,1626.3052 C -629.71158,1628.9865 -629.41877,1631.4239 -629.09156,1633.6177 C -630.27678,1633.686 -631.44492,1633.9994 -632.52906,1634.6177 C -632.52907,1634.6177 -651.06286,1646.5603 -684.84156,1658.5864 C -700.44797,1664.1428 -704.74835,1675.0224 -704.62281,1680.5864 L -714.02906,1671.6802 C -719.91637,1677.7956 -719.7487,1687.1674 -713.46656,1693.1177 C -707.1845,1699.068 -697.04177,1699.468 -690.24781,1694.2114 L -698.59156,1686.3052 C -680.1265,1689.7947 -640.4669,1651.2275 -625.84156,1646.5864 C -619.44056,1661.476 -609.43531,1642.8989 -609.43531,1642.8989 C -609.43533,1642.8989 -621.98389,1561.0886 -561.43531,1534.7114 C -533.0785,1606.694 -467.18419,1655.3062 -410.24781,1655.4614 C -410.1566,1655.4617 -410.05772,1655.4614 -409.96656,1655.4614 C -353.03019,1655.3062 -287.13587,1606.694 -258.77906,1534.7114 C -198.23048,1561.0886 -210.77906,1642.8989 -210.77906,1642.8989 C -210.77906,1642.8989 -200.77379,1661.476 -194.37281,1646.5864 C -179.74746,1651.2275 -140.08784,1689.7947 -121.62281,1686.3052 L -129.96656,1694.2114 C -123.1726,1699.468 -113.02988,1699.068 -106.74781,1693.1177 C -100.46566,1687.1674 -100.29799,1677.7956 -106.18531,1671.6802 L -115.59156,1680.5864 C -115.46602,1675.0224 -119.76638,1664.1428 -135.37281,1658.5864 C -169.1515,1646.5603 -187.68532,1634.6177 -187.68531,1634.6177 C -188.76945,1633.9994 -189.96886,1633.686 -191.15406,1633.6177 C -190.82685,1631.4239 -190.50281,1628.9865 -190.24781,1626.3052 C -185.82421,1579.7876 -213.03076,1543.5904 -246.46656,1516.4614 C -246.30458,1515.7564 -248.5597,1515.0369 -251.99781,1514.4927 C -247.24707,1497.4019 -244.62281,1479.2438 -244.62281,1460.3052 C -244.62281,1426.8524 -253.07939,1395.6848 -267.59156,1369.0864 C -238.27278,1370.1816 -195.52533,1374.8609 -180.56031,1363.2427 C -180.32237,1364.1663 -179.87913,1365.0786 -179.27906,1365.8989 C -167.6569,1372.8025 -141.64367,1430.183 -124.24781,1422.3052 C -115.7069,1423.751 -88.949224,1445.3585 -79.747804,1440.0552 L -85.154054,1452.8989 C -77.677484,1455.4357 -69.375406,1451.7811 -66.247804,1444.3989 C -63.120096,1437.0168 -66.316366,1428.5325 -73.341554,1424.9302 L -77.935304,1435.8364 C -78.705974,1432.3942 -82.153064,1426.9292 -90.560304,1424.9614 C -108.85663,1420.6791 -119.69236,1415.4952 -121.09156,1414.8052 C -120.93181,1409.0655 -123.28428,1400.8855 -132.06031,1393.7427 C -157.05887,1373.3963 -169.18532,1357.3677 -169.18531,1357.3677 C -170.76834,1355.4967 -173.16072,1354.7209 -175.40406,1355.1177 C -175.3366,1354.754 -175.25558,1354.3724 -175.21656,1353.9927 C -175.53092,1348.4613 -190.31573,1332.4859 -217.06031,1339.0864 C -244.52995,1345.866 -266.26168,1348.7044 -279.68531,1349.8989 C -283.26635,1344.9282 -287.07193,1340.1649 -291.09156,1335.6489 C -288.30302,1331.3155 -287.34334,1326.2837 -287.77906,1320.8052 C -287.43473,1321.1639 -287.09248,1321.524 -286.74781,1321.8364 C -281.3639,1322.376 -274.58542,1314.267 -271.90406,1308.5239 C -272.36945,1305.3513 -272.8802,1302.8834 -273.59156,1300.7114 C -270.08259,1299.541 -263.78168,1293.9357 -263.81031,1291.0552 C -267.97172,1281.5612 -260.06715,1238.3258 -269.62281,1226.6177 C -269.09595,1226.4696 -268.55403,1226.2233 -268.09156,1225.8677 C -264.30924,1219.1377 -231.91488,1203.4987 -236.68531,1193.6802 C -235.96534,1188.7738 -223.97525,1173.1865 -227.15406,1168.0239 L -219.74781,1170.9614 C -218.40252,1166.6601 -220.58603,1161.9577 -224.84156,1160.2739 C -225.63948,1159.9582 -226.46547,1159.7836 -227.27906,1159.7114 C -230.80454,1159.3989 -234.28069,1161.289 -235.87281,1164.5864 L -229.56031,1167.0864 C -231.51354,1167.5682 -234.613,1169.596 -235.62281,1174.4302 C -237.82215,1184.9588 -240.63585,1191.2131 -240.99781,1191.9927 C -244.275,1191.9824 -248.91986,1193.4219 -252.87281,1198.5239 C -264.14158,1213.0683 -273.12282,1220.2114 -273.12281,1220.2114 C -274.17032,1221.1417 -274.56968,1222.5289 -274.31031,1223.8052 C -274.51621,1223.7723 -274.75215,1223.7283 -274.96656,1223.7114 C -278.11879,1223.9665 -287.0369,1232.6021 -282.90406,1247.7739 C -275.59837,1274.5935 -275.15405,1291.9614 -275.15406,1291.9614 C -275.06404,1293.0762 -275.38387,1294.5603 -275.65406,1295.9927 C -276.78833,1293.9409 -278.21321,1291.8753 -280.12281,1289.3364 C -285.67349,1288.1278 -296.20604,1286.7553 -299.77906,1290.6802 C -310.2134,1274.1312 -325.36717,1257.7162 -336.87281,1246.6802 C -341.08723,1247.6932 -345.34469,1248.6474 -349.65406,1249.4927 L -352.34156,1242.1489 L -336.81031,1226.4614 L -340.52906,1224.3052 L -353.59156,1226.9927 C -353.59156,1226.9927 -364.61197,1229.8398 -368.49781,1238.3677 C -370.9885,1243.8338 -370.29185,1249.3799 -369.46656,1252.6802 C -375.39505,1253.4443 -381.39553,1254.041 -387.49781,1254.4614 L -397.34156,1242.5239 C -391.74519,1240.9374 -387.60217,1238.3387 -386.06031,1235.2739 C -381.76875,1235.3826 -374.73674,1235.3029 -371.15406,1233.7114 C -365.81288,1231.3389 -369.972,1229.1905 -368.31031,1227.0552 C -366.64862,1224.9199 -365.34673,1225.7512 -363.09156,1221.8364 C -360.83639,1217.9217 -358.21084,1214.2633 -359.27906,1209.9927 C -360.3473,1205.7221 -362.25584,1204.5103 -365.93531,1209.4927 C -369.61478,1214.4751 -370.1942,1221.2794 -375.65406,1226.6177 C -380.09019,1230.955 -386.66093,1227.9042 -388.96656,1226.6177 C -388.97994,1226.6102 -388.98471,1226.6251 -388.99781,1226.6177 C -393.34083,1223.2811 -401.19809,1221.0552 -410.15406,1221.0552 C -419.1155,1221.0552 -426.97265,1223.2778 -431.31031,1226.6177 C -431.31291,1226.6197 -431.33897,1226.6157 -431.34156,1226.6177 C -433.65488,1227.9069 -440.19218,1230.9497 -444.62281,1226.6177 C -450.08266,1221.2794 -450.66209,1214.4751 -454.34156,1209.4927 C -456.06631,1207.1572 -457.39516,1206.185 -458.43531,1206.2427 C -459.61416,1206.3081 -460.43031,1207.7239 -460.99781,1209.9927 C -462.06603,1214.2633 -459.44046,1217.9217 -457.18531,1221.8364 C -454.93013,1225.7512 -453.62826,1224.9199 -451.96656,1227.0552 C -450.30486,1229.1905 -454.46397,1231.3389 -449.12281,1233.7114 C -445.54379,1235.3013 -438.50946,1235.3821 -434.21656,1235.2739 C -432.67813,1238.3388 -428.53172,1240.9373 -422.93531,1242.5239 L -432.62281,1254.3052 C -439.51765,1253.7863 -446.49219,1253.0146 -453.59156,1252.0239 C -452.84717,1248.6708 -452.38807,1243.4778 -454.71656,1238.3677 C -458.60241,1229.8398 -469.62281,1226.9927 -469.62281,1226.9927 L -482.68531,1224.3052 L -486.40406,1226.4614 L -470.87281,1242.1489 L -473.27906,1248.7427 C -476.45335,1248.1137 -479.62746,1247.4071 -482.84156,1246.6802 C -496.89762,1257.5103 -511.83625,1273.5098 -521.62281,1289.7427 C -525.95063,1287.0479 -535.0641,1288.2418 -540.09156,1289.3364 C -542.00115,1291.8753 -543.45729,1293.9409 -544.59156,1295.9927 C -544.86174,1294.5603 -545.15033,1293.0762 -545.06031,1291.9614 C -545.0603,1291.9614 -544.616,1274.5935 -537.31031,1247.7739 C -533.17746,1232.6021 -542.12684,1223.9665 -545.27906,1223.7114 C -545.49345,1223.7283 -545.69817,1223.7723 -545.90406,1223.8052 C -545.64467,1222.5289 -546.04405,1221.1417 -547.09156,1220.2114 C -547.09156,1220.2114 -556.10403,1213.0683 -567.37281,1198.5239 C -571.32576,1193.4219 -575.93938,1191.9824 -579.21656,1191.9927 C -579.5785,1191.2131 -582.42347,1184.9588 -584.62281,1174.4302 C -585.63267,1169.596 -588.70082,1167.5682 -590.65406,1167.0864 L -584.37281,1164.5864 C -585.86543,1161.4951 -588.98844,1159.6422 -592.27906,1159.6802 z "
         style="fill:#000000;fill-opacity:1;stroke:#000000;stroke-width:2.10344672;stroke-miterlimit:4;stroke-dasharray:none;stroke-opacity:1;filter:url(#filter6139)" />
      <g
         transform="matrix(0.9508404,0,0,0.9508004,737.88726,88.355313)"
         id="g6072">
        <path
           style="fill:#ffffff;fill-opacity:1;stroke:#000000;stroke-width:2.10344672;stroke-miterlimit:4;stroke-dasharray:none;stroke-opacity:1"
           d="M -577.14439,221.1599 C -577.36376,221.16243 -577.5803,221.17161 -577.80064,221.19115 C -578.61421,221.2633 -579.44022,221.43794 -580.23814,221.75365 C -584.49367,223.43743 -586.67718,228.13984 -585.33189,232.44115 L -577.92564,229.50365 C -581.10446,234.66618 -569.14562,250.25352 -568.42564,255.1599 C -573.19605,264.97841 -540.77046,280.61741 -536.98814,287.3474 C -536.52569,287.70301 -536.01499,287.94933 -535.48814,288.0974 C -545.04379,299.80548 -537.13923,343.04088 -541.30064,352.5349 C -541.32925,355.41543 -534.9971,361.02068 -531.48814,362.19115 C -532.19948,364.36314 -532.7415,366.83099 -533.20689,370.00365 C -530.52552,375.74673 -523.71581,383.85574 -518.33189,383.31615 C -518.029,383.04158 -517.72836,382.72042 -517.42564,382.4099 C -517.53631,387.70513 -516.40983,392.58893 -513.73814,396.81615 C -517.85885,401.42465 -521.73197,406.29394 -525.39439,411.37865 C -538.81725,410.18456 -560.54328,407.34727 -588.01939,400.56615 C -614.76403,393.96561 -629.54882,409.94103 -629.86314,415.4724 C -629.82412,415.85206 -629.77437,416.23371 -629.70689,416.5974 C -631.95027,416.20056 -634.34264,416.9764 -635.92564,418.8474 C -635.92565,418.84739 -648.02085,434.87598 -673.01939,455.2224 C -681.79547,462.36523 -684.14786,470.54516 -683.98814,476.2849 C -685.38735,476.9749 -696.22308,482.15882 -714.51939,486.44115 C -722.92659,488.40892 -726.3737,493.87394 -727.14439,497.31615 L -731.76939,486.4099 C -738.79458,490.0122 -741.95957,498.49649 -738.83189,505.87865 C -735.70428,513.26078 -727.40217,516.91545 -719.92564,514.37865 L -725.36314,501.5349 C -716.16169,506.83823 -689.37276,485.23067 -680.83189,483.7849 C -663.43604,491.66268 -637.42279,434.28224 -625.80064,427.37865 C -625.20055,426.55826 -624.78855,425.64602 -624.55064,424.7224 C -609.58563,436.34059 -566.80693,431.66131 -537.48814,430.56615 C -552.001,457.16938 -560.48814,488.3289 -560.48814,521.7849 C -560.48814,540.72372 -557.83271,558.88148 -553.08189,575.9724 C -556.52,576.51661 -558.80637,577.23612 -558.64439,577.94115 C -592.08015,605.07011 -619.2555,641.26729 -614.83189,687.7849 C -614.57691,690.46624 -614.2841,692.90361 -613.95689,695.0974 C -615.14211,695.16571 -616.31025,695.47912 -617.39439,696.0974 C -617.3944,696.09741 -635.92819,708.04002 -669.70689,720.06615 C -685.3133,725.62249 -689.61368,736.50213 -689.48814,742.06615 L -698.89439,733.1599 C -704.7817,739.27531 -704.61403,748.64715 -698.33189,754.5974 C -692.04983,760.5477 -681.9071,760.94767 -675.11314,755.69115 L -683.45689,747.7849 C -664.99183,751.27439 -625.33223,712.70721 -610.70689,708.06615 C -604.30589,722.95574 -594.30064,704.37865 -594.30064,704.37865 C -594.30066,704.37863 -606.84922,622.56833 -546.30064,596.19115 C -517.94383,668.17372 -452.04952,716.78588 -395.11314,716.94115 C -395.02193,716.9414 -394.92305,716.94115 -394.83189,716.94115 C -337.89552,716.78588 -272.0012,668.17372 -243.64439,596.19115 C -183.09581,622.56833 -195.64439,704.37863 -195.64439,704.37865 C -195.64439,704.37865 -185.63912,722.95574 -179.23814,708.06615 C -164.61279,712.70721 -124.95317,751.27439 -106.48814,747.7849 L -114.83189,755.69115 C -108.03793,760.94767 -97.89521,760.5477 -91.61314,754.5974 C -85.331,748.64715 -85.16333,739.27531 -91.05064,733.1599 L -100.45689,742.06615 C -100.33135,736.50213 -104.63171,725.62249 -120.23814,720.06615 C -154.01683,708.04002 -172.55065,696.09741 -172.55064,696.0974 C -173.63478,695.47912 -174.83419,695.16571 -176.01939,695.0974 C -175.69218,692.90361 -175.36814,690.46624 -175.11314,687.7849 C -170.68954,641.26729 -197.89609,605.07011 -231.33189,577.94115 C -231.16991,577.23612 -233.42503,576.51661 -236.86314,575.9724 C -232.1124,558.88162 -229.48814,540.72355 -229.48814,521.7849 C -229.48814,488.33207 -237.94472,457.16455 -252.45689,430.56615 C -223.13811,431.66131 -180.39066,436.34059 -165.42564,424.7224 C -165.1877,425.64602 -164.74446,426.55826 -164.14439,427.37865 C -152.52223,434.28224 -126.509,491.66268 -109.11314,483.7849 C -100.57223,485.23067 -73.81456,506.83823 -64.61314,501.5349 L -70.01939,514.37865 C -62.54282,516.91545 -54.240742,513.26078 -51.11314,505.87865 C -47.985432,498.49649 -51.181702,490.0122 -58.20689,486.4099 L -62.80064,497.31615 C -63.57131,493.87394 -67.0184,488.40892 -75.42564,486.44115 C -93.72196,482.15882 -104.55769,476.9749 -105.95689,476.2849 C -105.79714,470.54516 -108.14961,462.36523 -116.92564,455.2224 C -141.9242,434.87598 -154.05065,418.84739 -154.05064,418.8474 C -155.63367,416.9764 -158.02605,416.20056 -160.26939,416.5974 C -160.20193,416.23371 -160.12091,415.85206 -160.08189,415.4724 C -160.39625,409.94103 -175.18106,393.96561 -201.92564,400.56615 C -229.39528,407.34566 -251.12701,410.18406 -264.55064,411.37865 C -268.13168,406.40793 -271.93726,401.64461 -275.95689,397.12865 C -273.16835,392.79518 -272.20867,387.76339 -272.64439,382.2849 C -272.30006,382.64364 -271.95781,383.00371 -271.61314,383.31615 C -266.22923,383.85574 -259.45075,375.74673 -256.76939,370.00365 C -257.23478,366.83099 -257.74553,364.36314 -258.45689,362.19115 C -254.94792,361.02068 -248.64701,355.41543 -248.67564,352.5349 C -252.83705,343.04088 -244.93248,299.80548 -254.48814,288.0974 C -253.96128,287.94933 -253.41936,287.70301 -252.95689,287.3474 C -249.17457,280.61741 -216.78021,264.97841 -221.55064,255.1599 C -220.83067,250.25352 -208.84058,234.66618 -212.01939,229.50365 L -204.61314,232.44115 C -203.26785,228.13984 -205.45136,223.43743 -209.70689,221.75365 C -210.50481,221.43794 -211.3308,221.2633 -212.14439,221.19115 C -215.66987,220.87858 -219.14602,222.76874 -220.73814,226.06615 L -214.42564,228.56615 C -216.37887,229.04787 -219.47833,231.07568 -220.48814,235.9099 C -222.68748,246.43849 -225.50118,252.69283 -225.86314,253.4724 C -229.14033,253.46211 -233.78519,254.90165 -237.73814,260.00365 C -249.00691,274.54798 -257.98815,281.69115 -257.98814,281.69115 C -259.03565,282.62141 -259.43501,284.00863 -259.17564,285.2849 C -259.38154,285.25201 -259.61748,285.20801 -259.83189,285.19115 C -262.98412,285.44624 -271.90223,294.0818 -267.76939,309.25365 C -260.4637,336.07321 -260.01938,353.44115 -260.01939,353.44115 C -259.92937,354.55589 -260.2492,356.03997 -260.51939,357.4724 C -261.65366,355.42065 -263.07854,353.35499 -264.98814,350.81615 C -270.53882,349.60754 -281.07137,348.23496 -284.64439,352.1599 C -295.07873,335.6109 -310.2325,319.19592 -321.73814,308.1599 C -325.95256,309.1729 -330.21002,310.12708 -334.51939,310.9724 L -337.20689,303.62865 L -321.67564,287.94115 L -325.39439,285.7849 L -338.45689,288.4724 C -338.45689,288.4724 -349.4773,291.31946 -353.36314,299.8474 C -355.85383,305.31348 -355.15718,310.85959 -354.33189,314.1599 C -360.26038,314.92398 -366.26086,315.52066 -372.36314,315.94115 L -382.20689,304.00365 C -376.61052,302.41707 -372.4675,299.81836 -370.92564,296.75365 C -366.63408,296.8623 -359.60207,296.78259 -356.01939,295.19115 C -350.67821,292.81859 -354.83733,290.6702 -353.17564,288.5349 C -351.51395,286.39958 -350.21206,287.23088 -347.95689,283.31615 C -345.70172,279.40143 -343.07617,275.74301 -344.14439,271.4724 C -345.21263,267.2018 -347.12117,265.99002 -350.80064,270.9724 C -354.48011,275.95477 -355.05953,282.75914 -360.51939,288.0974 C -364.95552,292.43473 -371.52626,289.38391 -373.83189,288.0974 C -373.84527,288.08992 -373.85004,288.10476 -373.86314,288.0974 C -378.20616,284.76085 -386.06342,282.5349 -395.01939,282.5349 C -403.98083,282.5349 -411.83798,284.75746 -416.17564,288.0974 C -416.17824,288.09939 -416.2043,288.0954 -416.20689,288.0974 C -418.52021,289.3866 -425.05751,292.42936 -429.48814,288.0974 C -434.94799,282.75913 -435.52742,275.95477 -439.20689,270.9724 C -440.93164,268.6369 -442.26049,267.66472 -443.30064,267.7224 C -444.47949,267.78776 -445.29564,269.20363 -445.86314,271.4724 C -446.93136,275.74302 -444.30579,279.40143 -442.05064,283.31615 C -439.79546,287.23088 -438.49359,286.39959 -436.83189,288.5349 C -435.17019,290.67019 -439.3293,292.81859 -433.98814,295.19115 C -430.40912,296.78097 -423.37479,296.86177 -419.08189,296.75365 C -417.54346,299.81846 -413.39705,302.41701 -407.80064,304.00365 L -417.48814,315.7849 C -424.38298,315.26596 -431.35752,314.49427 -438.45689,313.50365 C -437.7125,310.15048 -437.2534,304.95753 -439.58189,299.8474 C -443.46774,291.31946 -454.48814,288.4724 -454.48814,288.4724 L -467.55064,285.7849 L -471.26939,287.94115 L -455.73814,303.62865 L -458.14439,310.2224 C -461.31868,309.5934 -464.49279,308.88682 -467.70689,308.1599 C -481.76295,318.98998 -496.70158,334.98948 -506.48814,351.2224 C -510.81596,348.52762 -519.92943,349.72147 -524.95689,350.81615 C -526.86648,353.35499 -528.32262,355.42065 -529.45689,357.4724 C -529.72707,356.03997 -530.01566,354.55589 -529.92564,353.44115 C -529.92563,353.44115 -529.48133,336.07321 -522.17564,309.25365 C -518.04279,294.0818 -526.99217,285.44624 -530.14439,285.19115 C -530.35878,285.20801 -530.5635,285.25201 -530.76939,285.2849 C -530.51,284.00863 -530.90938,282.62141 -531.95689,281.69115 C -531.95689,281.69115 -540.96936,274.54798 -552.23814,260.00365 C -556.19109,254.90165 -560.80471,253.46211 -564.08189,253.4724 C -564.44383,252.69283 -567.2888,246.43849 -569.48814,235.9099 C -570.498,231.07568 -573.56615,229.04787 -575.51939,228.56615 L -569.23814,226.06615 C -570.73076,222.97483 -573.85377,221.12193 -577.14439,221.1599 z "
           id="path5694" />
        <g
           id="g5643"
           transform="translate(-768.73157,-52.323854)">
          <g
             transform="matrix(0.5237637,0,0,0.5237637,157.2474,257.92045)"
             id="g2572">
            <g
               style="fill:url(#linearGradient6119);fill-opacity:1;stroke:none;stroke-width:3.72318101;stroke-miterlimit:4;stroke-dasharray:none;stroke-opacity:1"
               id="g4638"
               transform="matrix(1.1234226,0,0,1.0356684,-55.222431,-106.24924)">
              <path
                 id="path4640"
                 d="M 172.25486,782.69399 C 155.7605,782.56031 138.39625,785.34298 138.97361,788.06899 C 82.149437,838.0813 35.955687,904.84488 43.473607,990.60024 C 43.906957,995.54334 44.417517,999.99344 44.973607,1004.0377 C 42.959357,1004.1636 40.941107,1004.7729 39.098607,1005.9127 C 39.098607,1005.9127 7.5992867,1027.93 -49.807643,1050.1002 C -76.330773,1060.3433 -83.645993,1080.4054 -83.432643,1090.6627 L -99.401393,1074.2565 C -109.40688,1085.5303 -109.14039,1102.7872 -98.463893,1113.7565 C -87.787513,1124.7259 -70.541473,1125.4469 -58.995143,1115.7565 L -73.151393,1101.194 C -41.770043,1107.6269 25.617817,1036.531 50.473607,1027.9752 C 61.352087,1055.4242 78.348607,1021.194 78.348607,1021.194 C 78.348617,1021.194 56.974507,869.99615 160.25486,821.53774 C 224.80512,791.25123 199.74547,782.91679 172.25486,782.69399 z "
                 style="fill:url(#linearGradient6121);fill-opacity:1;stroke:none;stroke-width:3.72318101;stroke-miterlimit:4;stroke-dasharray:none;stroke-opacity:1" />
              <path
                 id="path4642"
                 d="M 661.97083,782.69399 C 678.46519,782.56031 695.82944,785.34298 695.25208,788.06899 C 752.07625,838.0813 798.27,904.84488 790.75208,990.60024 C 790.31873,995.54334 789.80817,999.99344 789.25208,1004.0377 C 791.26633,1004.1636 793.28458,1004.7729 795.12708,1005.9127 C 795.12708,1005.9127 826.6264,1027.93 884.03333,1050.1002 C 910.55646,1060.3433 917.87168,1080.4054 917.65833,1090.6627 L 933.62708,1074.2565 C 943.63257,1085.5303 943.36608,1102.7872 932.68958,1113.7565 C 922.0132,1124.7259 904.76716,1125.4469 893.22083,1115.7565 L 907.37708,1101.194 C 875.99573,1107.6269 808.60787,1036.531 783.75208,1027.9752 C 772.8736,1055.4242 755.87708,1021.194 755.87708,1021.194 C 755.87707,1021.194 777.25118,869.99615 673.97083,821.53774 C 609.42057,791.25123 634.48022,782.91679 661.97083,782.69399 z "
                 style="fill:url(#linearGradient6123);fill-opacity:1;stroke:none;stroke-width:3.72318101;stroke-miterlimit:4;stroke-dasharray:none;stroke-opacity:1" />
            </g>
            <g
               id="g2517">
              <g
                 style="fill:url(#linearGradient6125);fill-opacity:1;stroke:none;stroke-width:4.01602221;stroke-miterlimit:4;stroke-dasharray:none;stroke-opacity:1"
                 transform="translate(-6.4655632,11.525202)"
                 id="g4656">
                <path
                   style="fill:url(#linearGradient6127);fill-opacity:1;stroke:none;stroke-width:4.01602221;stroke-miterlimit:4;stroke-dasharray:none;stroke-opacity:1"
                   d="M 227.3275,379.12556 C 221.87412,376.66762 207.85268,382.51725 199.59809,382.04951 C 199.59809,382.04951 141.54234,382.01858 51.278517,359.74143 C 0.21614111,347.13929 -28.019774,377.67596 -28.619893,388.23678 C -28.545381,388.96165 -28.438543,389.67507 -28.309711,390.36946 C -32.592861,389.61176 -37.143872,391.06943 -40.16622,394.64164 C -40.16622,394.64164 -63.310056,425.29258 -111.03871,464.13916 C -127.79447,477.77665 -132.25822,493.39596 -131.95326,504.3546 C -134.62467,505.67198 -155.33545,515.569 -190.26783,523.74508 C -206.31938,527.50201 -212.89408,537.90785 -214.36552,544.47993 L -223.17275,523.68257 C -236.58563,530.56029 -242.63612,546.75686 -236.66457,560.85131 C -230.69313,574.94573 -214.85359,581.88359 -200.57897,577.04018 L -210.93547,552.5549 C -193.36755,562.68027 -142.2586,521.42157 -125.95187,518.66123 C -92.738653,533.70193 -43.046415,424.12229 -20.856727,410.94156 C -19.711035,409.37522 -18.915077,407.66849 -18.460845,405.90507 C 21.468753,436.90468 165.36065,407.02176 197.43738,420.17383 C 208.01445,420.02529 228.99646,394.02334 229.59667,383.46245 C 229.72795,381.15228 228.85449,379.81369 227.3275,379.12556 z "
                   id="path4658" />
                <path
                   style="fill:url(#linearGradient6129);fill-opacity:1;stroke:none;stroke-width:4.01602221;stroke-miterlimit:4;stroke-dasharray:none;stroke-opacity:1"
                   d="M 612.34672,379.12556 C 617.80012,376.66762 631.82162,382.51725 640.07622,382.04951 C 640.07622,382.04951 698.13192,382.01858 788.39582,359.74143 C 839.45812,347.13929 867.69402,377.67596 868.29422,388.23678 C 868.21972,388.96165 868.11282,389.67507 867.98402,390.36946 C 872.26712,389.61176 876.81812,391.06943 879.84052,394.64164 C 879.84052,394.64164 902.98432,425.29258 950.71302,464.13916 C 967.46872,477.77665 971.93252,493.39596 971.62752,504.3546 C 974.29892,505.67198 995.00972,515.569 1029.9421,523.74508 C 1045.9937,527.50201 1052.5684,537.90785 1054.0398,544.47993 L 1062.847,523.68257 C 1076.2599,530.56029 1082.3104,546.75686 1076.3388,560.85131 C 1070.3674,574.94573 1054.5279,581.88359 1040.2532,577.04018 L 1050.6097,552.5549 C 1033.0418,562.68027 981.93292,521.42157 965.62612,518.66123 C 932.41292,533.70193 882.72072,424.12229 860.53102,410.94156 C 859.38532,409.37522 858.58942,407.66849 858.13512,405.90507 C 818.20552,436.90468 674.31362,407.02176 642.23692,420.17383 C 631.65982,420.02529 610.67782,394.02334 610.07762,383.46245 C 609.94632,381.15228 610.81982,379.81369 612.34672,379.12556 z "
                   id="path4660" />
              </g>
              <g
                 transform="translate(-7.4878224,0)"
                 id="g2401">
                <g
                   id="g2370">
                  <path
                     id="path2349"
                     d="M 328.59906,117.65676 C 326.34835,117.78154 324.80491,120.46135 323.72141,124.79301 C 321.68189,132.9467 326.67214,139.95299 330.97781,147.42721 C 335.2835,154.90144 337.77675,153.32191 340.94936,157.39876 C 344.12196,161.4756 336.182,165.55561 346.37965,170.08545 C 353.21295,173.12082 366.63231,173.29537 374.82857,173.08893 C 377.76585,178.94045 385.6725,183.89965 396.3575,186.92895 L 348.18173,245.48473 L 493.42988,245.48473 L 445.23008,186.92895 C 455.91501,183.89977 463.8152,178.94025 466.75901,173.08893 C 474.9527,173.29638 488.3917,173.12391 495.23196,170.08545 C 505.42962,165.55561 497.48965,161.4756 500.66225,157.39876 C 503.83486,153.32191 506.32811,154.90144 510.6338,147.42721 C 514.93948,139.95299 519.92972,132.9467 517.8902,124.79301 C 515.85065,116.63931 512.22856,114.36731 505.20351,123.87996 C 498.17846,133.39259 497.05428,146.34164 486.63,156.53376 C 478.1603,164.81486 465.63466,159.0381 461.23261,156.58181 C 461.20705,156.56755 461.18553,156.57182 461.16052,156.55778 C 452.86857,150.18745 437.89305,145.91347 420.79379,145.91347 C 403.68406,145.91347 388.68475,150.18097 380.40303,156.55778 C 380.39196,156.56398 380.39018,156.57558 380.379,156.58181 C 380.37405,156.58564 380.35993,156.57799 380.35498,156.58181 C 375.93828,159.04325 363.44082,164.80458 354.98161,156.53376 C 344.55733,146.34164 343.43315,133.39259 336.4081,123.87996 C 333.1151,119.4209 330.58498,117.54664 328.59906,117.65676 z "
                     style="opacity:1;fill:#000000;fill-opacity:1;stroke:none;stroke-width:1;stroke-miterlimit:4;stroke-dasharray:none;stroke-opacity:1" />
                  <g
                     transform="matrix(1.2913037,0,0,1.2913037,-122.59788,-160.51986)"
                     id="g2320">
                    <g
                       id="g2366">
                      <path
                         sodipodi:nodetypes="ccsccccc"
                         id="path2312"
                         d="M 323.66269,288.54071 L 354.91786,288.54071 C 354.91786,288.54071 360.6633,275.53145 354.91786,262.92246 C 349.17242,250.31348 332.8554,246.11048 332.8554,246.11048 L 313.55073,242.10764 L 308.03513,245.30991 L 331.01685,268.52646 L 323.66269,288.54071 z "
                         style="fill:#000000;fill-rule:evenodd;stroke:#000000;stroke-width:1.55502629px;stroke-linecap:butt;stroke-linejoin:miter;stroke-opacity:1" />
                      <path
                         sodipodi:nodetypes="ccsccccc"
                         id="path2314"
                         d="M 513.63086,288.54072 L 482.3757,288.54072 C 482.3757,288.54072 476.63026,275.53145 482.3757,262.92246 C 488.12112,250.31348 504.43817,246.11048 504.43817,246.11048 L 523.74283,242.10764 L 529.25844,245.30991 L 506.2767,268.52646 L 513.63086,288.54072 z "
                         style="fill:#000000;fill-rule:evenodd;stroke:#000000;stroke-width:1.55502629px;stroke-linecap:butt;stroke-linejoin:miter;stroke-opacity:1" />
                    </g>
                    <g
                       id="g2279">
                      <g
                         transform="translate(620,0)"
                         id="g2204">
                        <path
                           style="fill:#000000;fill-opacity:1;stroke:#000000;stroke-width:1.55502629;stroke-miterlimit:4;stroke-dasharray:none;stroke-opacity:1"
                           d="M -211.09375,328 C -336.00028,329.91196 -443.84375,445.91608 -443.84375,591.0625 C -443.84376,754.9772 -310.11374,879.29167 -199.34375,879.59375 C -199.2089,879.59412 -199.07228,879.59375 -198.9375,879.59375 C -88.167514,879.29167 45.562499,754.9772 45.5625,591.0625 C 45.5625,441.38986 -69.130508,322.73785 -198.9375,328.1875 C -199.07276,328.18155 -199.20852,328.19318 -199.34375,328.1875 C -203.26922,328.0227 -207.19869,327.94038 -211.09375,328 z "
                           id="path2194" />
                        <g
                           id="g46652"
                           transform="matrix(0.9768846,0,0,0.9768846,-1024.3089,87.091487)">
                          <path
                             sodipodi:nodetypes="cscsc"
                             id="path43713"
                             d="M 842.88867,249.21874 C 712.91502,243.50446 597.98661,362.25626 597.98661,512.08482 C 597.98661,676.19909 732.04003,800.63395 842.88867,800.63392 C 843.14863,728.54187 843.81928,695.2188 843.90537,516.36607 C 843.9957,331.5636 844.92199,359.18526 842.88867,249.21874 z "
                             style="fill:#d40000;fill-opacity:1;stroke:#000000;stroke-width:1.59182191;stroke-miterlimit:4;stroke-dasharray:none;stroke-opacity:1" />
                          <path
                             sodipodi:nodetypes="cscsc"
                             id="path2190"
                             d="M 846.49884,249.21874 C 976.47249,243.50446 1091.4009,362.25626 1091.4009,512.08482 C 1091.4009,676.19909 957.34748,800.63395 846.49884,800.63392 C 846.23888,728.54187 845.56823,695.2188 845.48214,516.36607 C 845.39181,331.5636 844.46552,359.18526 846.49884,249.21874 z "
                             style="fill:#d40000;fill-opacity:1;stroke:#000000;stroke-width:1.59182191;stroke-miterlimit:4;stroke-dasharray:none;stroke-opacity:1" />
                        </g>
                      </g>
                      <g
                         transform="translate(788.43079,-177.14286)"
                         id="g2239">
                        <path
                           id="path2226"
                           style="fill:#ffdd55;fill-opacity:1;stroke:none;stroke-width:1;stroke-miterlimit:4;stroke-opacity:1"
                           d="M -411.42855,664.21365 L -458.50643,582.67238 L -364.35068,582.67237 L -411.42855,664.21365 z M -323.71428,664.21365 L -370.79216,582.67238 L -276.63641,582.67237 L -323.71428,664.21365 z " />
                        <path
                           sodipodi:type="arc"
                           style="opacity:1;fill:#000000;fill-opacity:1;stroke:none;stroke-width:1;stroke-miterlimit:4;stroke-dasharray:none;stroke-opacity:1"
                           id="path2230"
                           sodipodi:cx="-365.71429"
                           sodipodi:cy="669.50507"
                           sodipodi:rx="82.85714"
                           sodipodi:ry="82.85714"
                           d="M -282.85715 669.50507 A 82.85714 82.85714 0 1 1  -448.57143,669.50507 A 82.85714 82.85714 0 1 1  -282.85715 669.50507 z"
                           transform="matrix(0.6551724,0,0,0.6551724,-127.96551,205.14953)" />
                      </g>
                      <path
                         sodipodi:nodetypes="ccccc"
                         id="path46641"
                         d="M 313.31123,275.23215 C 269.73981,308.80358 220.44962,375.94197 247.59248,409.5134 C 334.59331,436.75173 512.88412,437.94691 594.87368,409.5134 C 622.01658,375.94197 564.15498,308.80358 529.15498,275.23215 C 464.93618,290.6681 393.30785,293.32462 313.31123,275.23215 z "
                         style="fill:#000000;fill-rule:evenodd;stroke:#000000;stroke-width:1.55502629px;stroke-linecap:butt;stroke-linejoin:miter;stroke-opacity:1" />
                      <g
                         transform="matrix(0.9578947,0,0,0.9578947,523.49095,16.971641)"
                         id="g2253">
                        <path
                           sodipodi:type="arc"
                           style="opacity:1;fill:#000000;fill-opacity:1;stroke:none;stroke-width:1;stroke-miterlimit:4;stroke-dasharray:none;stroke-opacity:1"
                           id="path2237"
                           sodipodi:cx="-365.71429"
                           sodipodi:cy="669.50507"
                           sodipodi:rx="82.85714"
                           sodipodi:ry="82.85714"
                           d="M -282.85715 669.50507 A 82.85714 82.85714 0 1 1  -448.57143,669.50507 A 82.85714 82.85714 0 1 1  -282.85715 669.50507 z"
                           transform="matrix(0.6551724,0,0,0.6551724,51.034481,222.29237)" />
                        <path
                           sodipodi:type="arc"
                           style="opacity:1;fill:#000000;fill-opacity:1;stroke:none;stroke-width:1;stroke-miterlimit:4;stroke-dasharray:none;stroke-opacity:1"
                           id="path2243"
                           sodipodi:cx="-365.71429"
                           sodipodi:cy="669.50507"
                           sodipodi:rx="82.85714"
                           sodipodi:ry="82.85714"
                           d="M -282.85715 669.50507 A 82.85714 82.85714 0 1 1  -448.57143,669.50507 A 82.85714 82.85714 0 1 1  -282.85715 669.50507 z"
                           transform="matrix(0.6551724,0,0,0.6551724,213.89163,222.29237)" />
                      </g>
                      <g
                         transform="translate(-1.121195,0)"
                         id="g2267">
                        <path
                           sodipodi:type="arc"
                           style="fill:#000000;fill-opacity:1;stroke:none;stroke-width:1;stroke-miterlimit:4;stroke-dasharray:none;stroke-opacity:1"
                           id="path2259"
                           sodipodi:cx="-365.71429"
                           sodipodi:cy="669.50507"
                           sodipodi:rx="82.85714"
                           sodipodi:ry="82.85714"
                           d="M -282.85715 669.50507 A 82.85714 82.85714 0 1 1  -448.57143,669.50507 A 82.85714 82.85714 0 1 1  -282.85715 669.50507 z"
                           transform="matrix(0.6015415,0.2596127,-0.1776297,0.411581,680.34486,611.75068)" />
                        <path
                           sodipodi:type="arc"
                           style="fill:#000000;fill-opacity:1;stroke:none;stroke-width:1;stroke-miterlimit:4;stroke-dasharray:none;stroke-opacity:1"
                           id="path2265"
                           sodipodi:cx="-365.71429"
                           sodipodi:cy="669.50507"
                           sodipodi:rx="82.85714"
                           sodipodi:ry="82.85714"
                           d="M -282.85715 669.50507 A 82.85714 82.85714 0 1 1  -448.57143,669.50507 A 82.85714 82.85714 0 1 1  -282.85715 669.50507 z"
                           transform="matrix(-0.6015415,0.2596127,0.1776297,0.411581,163.61628,611.75068)" />
                      </g>
                      <g
                         transform="translate(-0.9988763,0)"
                         id="g2275">
                        <path
                           sodipodi:type="arc"
                           style="fill:#000000;fill-opacity:1;stroke:none;stroke-width:1;stroke-miterlimit:4;stroke-dasharray:none;stroke-opacity:1"
                           id="path2245"
                           sodipodi:cx="-365.71429"
                           sodipodi:cy="669.50507"
                           sodipodi:rx="82.85714"
                           sodipodi:ry="82.85714"
                           d="M -282.85715 669.50507 A 82.85714 82.85714 0 1 1  -448.57143,669.50507 A 82.85714 82.85714 0 1 1  -282.85715 669.50507 z"
                           transform="matrix(0.5172414,0,0,0.6551724,452.87908,93.720941)" />
                        <path
                           sodipodi:type="arc"
                           style="fill:#000000;fill-opacity:1;stroke:none;stroke-width:1;stroke-miterlimit:4;stroke-dasharray:none;stroke-opacity:1"
                           id="path2273"
                           sodipodi:cx="-365.71429"
                           sodipodi:cy="669.50507"
                           sodipodi:rx="82.85714"
                           sodipodi:ry="82.85714"
                           d="M -282.85715 669.50507 A 82.85714 82.85714 0 1 1  -448.57143,669.50507 A 82.85714 82.85714 0 1 1  -282.85715 669.50507 z"
                           transform="matrix(0.5172414,0,0,0.6551724,769.16257,93.720941)" />
                      </g>
                    </g>
                    <g
                       id="g2308"
                       transform="translate(2.35491,0)">
                      <path
                         id="path2301"
                         d="M 309.04464,275.17857 C 288.315,291.1506 266.32884,314.74037 251.85714,338.67857 L 254.91964,356.80357 L 359.57589,284.08482 C 343.11464,282.0335 326.27254,279.07492 309.04464,275.17857 z "
                         style="fill:#ffdd55;fill-opacity:1;fill-rule:evenodd;stroke:#000000;stroke-width:1.55502629px;stroke-linecap:butt;stroke-linejoin:miter;stroke-opacity:1" />
                      <path
                         id="path2306"
                         d="M 527.96428,275.17857 C 548.69392,291.1506 570.68009,314.74037 585.15179,338.67857 L 582.08929,356.80357 L 477.43303,284.08482 C 493.89428,282.0335 510.73638,279.07492 527.96428,275.17857 z "
                         style="fill:#ffdd55;fill-opacity:1;fill-rule:evenodd;stroke:#000000;stroke-width:1.55502629px;stroke-linecap:butt;stroke-linejoin:miter;stroke-opacity:1" />
                    </g>
                  </g>
                </g>
                <path
                   sodipodi:type="star"
                   style="opacity:1;fill:#000000;fill-opacity:1;stroke:none;stroke-width:1;stroke-miterlimit:4;stroke-dasharray:none;stroke-opacity:1"
                   id="path2399"
                   sodipodi:sides="3"
                   sodipodi:cx="-351.42856"
                   sodipodi:cy="326.64789"
                   sodipodi:r1="33.319725"
                   sodipodi:r2="16.659863"
                   sodipodi:arg1="0.52359878"
                   sodipodi:arg2="1.5707963"
                   inkscape:flatsided="true"
                   inkscape:rounded="0"
                   inkscape:randomized="0"
                   d="M -322.57283,343.30775 L -380.28429,343.30775 L -351.42856,293.32816 L -322.57283,343.30775 z "
                   transform="matrix(0.5544336,0,0,1,615.70319,625.71429)" />
              </g>
              <g
                 transform="translate(-7.5754668,0)"
                 id="g2490">
                <path
                   style="fill:#000000;fill-opacity:1;stroke:none;stroke-width:1;stroke-miterlimit:4;stroke-opacity:1"
                   d="M 71.893207,28.825081 C 70.339884,28.962804 68.760265,29.316153 67.236832,29.91893 C 59.111919,33.133702 54.948595,42.067589 57.517106,50.279915 L 71.629823,44.69045 C 65.560651,54.547059 88.430628,84.28196 89.805246,93.649508 C 80.697243,112.39558 142.60045,142.2699 149.82187,155.11918 C 150.70484,155.79814 151.68957,156.28619 152.69547,156.56889 C 134.45127,178.92265 149.54034,261.45476 141.59513,279.58128 C 141.54046,285.08094 153.59348,295.77435 160.293,298.00909 C 158.93486,302.156 157.93172,306.86129 157.04317,312.9187 C 162.16258,323.88373 175.14206,339.39498 185.42135,338.36476 C 198.50288,326.50658 211.82344,296.38912 210.77746,279.45422 C 204.45932,271.27601 183.64054,273.9618 172.78792,276.32486 C 169.14199,281.17214 166.36918,285.09847 164.20357,289.01579 C 163.68773,286.28094 163.12497,283.46189 163.29685,281.33356 C 163.29685,281.33356 164.13501,248.1854 178.08346,196.97994 C 185.97412,168.01296 168.92607,151.50369 162.90766,151.01666 C 162.49828,151.04882 162.08833,151.10368 161.69522,151.16648 C 162.19045,148.72976 161.4037,146.11313 159.40373,144.33701 C 159.40373,144.33701 142.23459,130.71178 120.7196,102.94292 C 113.1724,93.201902 104.32305,90.430797 98.066066,90.450455 C 97.374974,88.962026 91.978685,76.998284 87.779589,56.896504 C 85.851568,47.666713 79.982936,43.804604 76.253709,42.88487 L 88.265784,38.129948 C 85.226022,31.834337 78.624257,28.228295 71.893207,28.825081 z "
                   id="path2461" />
                <path
                   style="fill:#000000;fill-opacity:1;stroke:none;stroke-width:1;stroke-miterlimit:4;stroke-opacity:1"
                   d="M 770.00085,28.825081 C 771.55418,28.962804 773.1338,29.316153 774.65723,29.91893 C 782.78214,33.133702 786.94547,42.067589 784.37696,50.279915 L 770.26424,44.69045 C 776.33341,54.547059 753.46343,84.28196 752.08882,93.649508 C 761.19682,112.39558 699.29361,142.2699 692.07219,155.11918 C 691.18922,155.79814 690.20449,156.28619 689.19859,156.56889 C 707.44279,178.92265 692.35372,261.45476 700.29893,279.58128 C 700.3536,285.08094 688.30058,295.77435 681.60106,298.00909 C 682.9592,302.156 683.96234,306.86129 684.85089,312.9187 C 679.73148,323.88373 666.752,339.39498 656.47271,338.36476 C 643.39118,326.50658 630.07062,296.38912 631.1166,279.45422 C 637.43474,271.27601 658.25352,273.9618 669.10614,276.32486 C 672.75207,281.17214 675.52488,285.09847 677.69049,289.01579 C 678.20633,286.28094 678.76909,283.46189 678.59721,281.33356 C 678.59721,281.33356 677.75905,248.1854 663.8106,196.97994 C 655.91994,168.01296 672.96799,151.50369 678.9864,151.01666 C 679.39578,151.04882 679.80573,151.10368 680.19884,151.16648 C 679.70361,148.72976 680.49036,146.11313 682.49033,144.33701 C 682.49033,144.33701 699.65947,130.71178 721.17446,102.94292 C 728.72166,93.201902 737.57101,90.430797 743.828,90.450455 C 744.51909,88.962026 749.91538,76.998284 754.11447,56.896504 C 756.04249,47.666713 761.91113,43.804604 765.64035,42.88487 L 753.62828,38.129948 C 756.66804,31.834337 763.2698,28.228295 770.00085,28.825081 z "
                   id="path2488" />
              </g>
            </g>
          </g>
          <path
             transform="matrix(3.2941176,0,0,3.2941176,-682.71418,-1120.167)"
             d="M 345.00001 518.79077 A 24.285715 24.285715 0 1 1  296.42858,518.79077 A 24.285715 24.285715 0 1 1  345.00001 518.79077 z"
             sodipodi:ry="24.285715"
             sodipodi:rx="24.285715"
             sodipodi:cy="518.79077"
             sodipodi:cx="320.71429"
             id="path2682"
             style="opacity:1;fill:url(#radialGradient6131);fill-opacity:1;stroke:none;stroke-width:1;stroke-miterlimit:4;stroke-dasharray:none;stroke-opacity:1"
             sodipodi:type="arc" />
          <path
             transform="matrix(1.2941177,0,0,1.2941177,-41.285624,-256.87127)"
             d="M 345.00001 518.79077 A 24.285715 24.285715 0 1 1  296.42858,518.79077 A 24.285715 24.285715 0 1 1  345.00001 518.79077 z"
             sodipodi:ry="24.285715"
             sodipodi:rx="24.285715"
             sodipodi:cy="518.79077"
             sodipodi:cx="320.71429"
             id="path4630"
             style="opacity:1;fill:url(#radialGradient6133);fill-opacity:1;stroke:none;stroke-width:1;stroke-miterlimit:4;stroke-dasharray:none;stroke-opacity:1"
             sodipodi:type="arc" />
        </g>
      </g>
    </g>
  </g>
</svg>
