<?xml version="1.0" encoding="UTF-8" standalone="no"?>
<!-- Created with Inkscape (http://www.inkscape.org/) -->
<svg
   xmlns:dc="http://purl.org/dc/elements/1.1/"
   xmlns:cc="http://web.resource.org/cc/"
   xmlns:rdf="http://www.w3.org/1999/02/22-rdf-syntax-ns#"
   xmlns:svg="http://www.w3.org/2000/svg"
   xmlns="http://www.w3.org/2000/svg"
   xmlns:sodipodi="http://sodipodi.sourceforge.net/DTD/sodipodi-0.dtd"
   xmlns:inkscape="http://www.inkscape.org/namespaces/inkscape"
   width="272.67804"
   height="373.7442"
   id="svg3642"
   sodipodi:version="0.32"
   inkscape:version="0.45pre1"
   sodipodi:docbase="C:\Documents and Settings\ryan\My Documents\My Pictures"
   sodipodi:docname="MichowwTru_Gold_Finch_Silhouette.svg"
   inkscape:output_extension="org.inkscape.output.svg.inkscape"
   sodipodi:modified="true"
   version="1.0">
  <defs
     id="defs3644" />
  <sodipodi:namedview
     id="base"
     pagecolor="#ffffff"
     bordercolor="#666666"
     borderopacity="1.0"
     gridtolerance="10000"
     guidetolerance="10"
     objecttolerance="10"
     inkscape:pageopacity="0.0"
     inkscape:pageshadow="2"
     inkscape:zoom="0.35"
     inkscape:cx="375"
     inkscape:cy="520"
     inkscape:document-units="px"
     inkscape:current-layer="layer1"
     inkscape:window-width="909"
     inkscape:window-height="588"
     inkscape:window-x="27"
     inkscape:window-y="35" />
  <metadata
     id="metadata3647">
    <rdf:RDF>
      <cc:Work
         rdf:about="">
        <dc:format>image/svg+xml</dc:format>
        <dc:type
           rdf:resource="http://purl.org/dc/dcmitype/StillImage" />
      </cc:Work>
    </rdf:RDF>
  </metadata>
  <g
     inkscape:label="Layer 1"
     inkscape:groupmode="layer"
     id="layer1"
     transform="translate(-23.660981,-19.775798)">
    <path
       style="fill:#000100;fill-opacity:1;fill-rule:evenodd;stroke:#000000;stroke-width:0.17247927;stroke-linecap:butt;stroke-linejoin:miter;stroke-miterlimit:4;stroke-dasharray:none;stroke-opacity:1;display:inline"
       d="M 89.373377,39.869921 C 86.096348,39.813779 82.722637,40.051188 79.455819,40.786217 C 71.144767,42.656211 63.009369,48.432611 63.555386,51.134973 C 63.973985,53.206734 64.017389,52.886724 62.477391,52.886716 C 56.814897,52.886724 43.747221,59.974535 43.747221,59.974535 C 43.747221,59.974544 53.029529,59.408588 53.799528,60.486583 C 54.569518,61.564579 54.115225,62.161331 55.039223,62.777324 C 55.963229,63.393325 60.583198,64.174871 55.039223,63.55887 C 49.495256,62.942878 45.472013,63.343271 45.472013,63.343271 C 45.472013,63.343271 53.461262,65.919447 58.542708,70.538891 C 59.461419,71.37407 63.281429,72.889731 63.555386,74.743073 C 64.01074,77.823535 62.70841,76.419908 62.935539,79.513202 C 63.275539,84.143762 64.090538,83.740488 62.396541,86.358473 C 60.702562,88.976467 64.402104,88.165685 61.695844,93.122895 C 59.819037,96.560751 62.21574,98.285277 59.728503,100.15681 C 59.728503,100.15681 58.47062,101.25299 58.138459,101.58516 C 57.806299,101.91732 60.473674,101.41031 59.809352,101.90856 C 59.145014,102.4068 53.600133,109.8691 50.94284,118.67139 C 48.285538,127.47369 44.909817,144.96074 45.849312,153.24809 C 46.59763,159.84905 57.259195,198.76909 58.920006,202.75503 C 60.580818,206.74097 75.070758,237.97241 90.505272,253.12437 C 94.641316,257.18471 97.000626,260.4965 98.320739,262.82633 C 91.801704,264.93233 92.041415,266.68017 92.041415,266.68017 C 92.041424,266.68016 91.906459,268.16241 91.367668,268.16241 C 90.828869,268.16242 89.750313,268.70156 88.807429,269.10566 C 87.864545,269.50975 84.764843,268.70162 84.495448,269.24041 C 84.226044,269.7792 84.49499,268.43181 83.282703,268.16241 C 82.070424,267.89302 79.509417,267.75867 78.701222,269.10566 C 77.893045,270.45264 78.161664,271.127 76.679981,271.3964 C 75.198298,271.66578 73.29304,271.35537 72.637498,271.6659 C 70.078225,272.87818 68.325111,272.87864 67.247521,272.87864 C 66.169931,272.87865 64.714033,274.09179 64.175234,275.16938 C 63.643748,276.23234 63.51093,277.81669 64.283033,279.02321 C 63.168317,279.45268 60.527211,280.71368 59.054756,283.65859 C 57.168971,287.43016 60.2675,291.60882 60.2675,291.60881 C 63.500271,296.05387 67.517727,294.77524 69.403512,294.3038 C 69.42088,294.29946 69.440017,294.2812 69.457411,294.27685 C 69.652934,294.88197 70.051646,295.5201 70.885755,295.59739 C 72.08835,295.70882 72.6069,299.47886 77.838826,301.04127 C 79.821346,301.63331 82.517162,300.48593 84.172049,299.58598 C 86.399757,301.40412 89.008247,302.28628 89.885425,302.63131 C 91.223338,303.15758 92.73254,301.49388 95.113702,302.06537 C 96.515243,302.40174 96.354053,300.57938 97.027144,300.55617 C 99.789288,300.46091 100.08742,299.21487 99.776033,298.64273 C 98.725168,296.71183 100.63325,294.7479 99.776033,293.41445 C 98.428012,291.31754 99.016253,289.88253 98.159039,288.64432 C 97.758396,288.06561 97.106424,287.34064 96.622896,286.40748 C 98.931453,285.615 101.23948,284.77742 103.52207,283.90114 C 104.0019,286.45315 103.93479,286.88284 104.73481,287.05428 C 105.20626,287.1553 106.54799,287.32255 107.322,288.02448 C 107.75125,288.41374 107.61807,288.37527 108.64255,288.64432 C 109.66703,288.91337 111.17195,289.91431 112.57723,290.01877 C 118.10641,290.42978 120.00201,288.56332 120.20404,288.15923 C 120.4061,287.75513 122.3445,288.2934 124.81248,286.65003 C 126.84018,285.29984 126.78029,284.25265 127.80391,284.06284 C 129.80969,283.69091 129.43435,280.6621 129.34006,280.04731 C 130.48953,280.01633 130.9301,279.77781 130.9301,279.77781 C 130.9301,279.7778 126.54025,277.88395 129.01666,278.64592 C 131.49305,279.40788 142.94536,283.77008 146.18373,283.3891 C 149.42209,283.0081 145.79862,283.98638 141.03631,280.74801 C 136.274,277.50963 147.70996,282.25351 151.51981,282.6345 C 155.32966,283.01547 156.07206,283.77447 150.73827,280.15511 C 145.40446,276.53574 157.79475,282.6467 161.03312,284.17064 C 164.2715,285.69458 163.13591,285.1146 160.27852,282.2572 C 157.42113,279.39982 161.79553,279.96392 166.55785,283.0118 C 171.32017,286.05967 174.56196,287.02733 174.56196,287.02733 C 174.56197,287.02734 164.27124,279.5903 169.41454,282.2572 C 174.55784,284.92411 187.31524,292.36639 192.26804,294.8428 C 197.22086,297.31921 198.76015,301.48696 210.18971,308.34469 C 221.61926,315.20244 222.55971,315.59421 222.55971,315.59421 C 222.55973,315.59422 229.98981,324.15436 233.60916,327.96421 C 237.22853,331.77407 248.29685,345.26603 248.29685,345.26603 C 248.29684,345.26604 257.7319,357.20605 264.60153,360.43882 C 271.47117,363.6716 272.55333,361.11206 276.72898,359.76507 C 280.90465,358.41809 277.40237,353.02694 276.45948,351.27586 C 275.5166,349.5248 276.99806,348.71501 275.92048,347.09863 C 274.84289,345.48225 266.40717,336.10307 266.40717,336.10307 L 266.56887,336.10307 C 266.56888,336.10307 259.43964,326.62415 257.94491,324.29902 C 256.45017,321.97389 251.76966,316.61861 251.34219,313.92332 C 250.73915,310.12105 250.30225,309.46407 249.75214,308.15604 C 248.87292,306.06543 247.88035,306.92991 246.35646,303.38591 C 245.14555,300.56982 240.12269,297.83322 239.86154,296.32504 C 239.33112,293.26189 226.32117,278.87528 223.23346,275.97788 C 220.93515,273.82122 221.62018,274.11197 220.45762,271.2886 C 219.29505,268.46521 215.2166,266.73997 215.82224,266.03337 C 217.3775,264.21883 214.88807,263.05627 216.98108,261.37104 C 217.64541,259.87632 215.10642,254.87348 212.6152,250.88753 C 210.12399,246.90159 205.46406,240.9198 204.79974,239.75723 C 204.13541,238.59466 199.48185,234.12843 199.81401,232.96586 C 200.14618,231.8033 197.31205,228.14051 197.14597,226.14754 C 196.97988,224.15457 194.66658,221.15611 194.66658,219.32922 C 194.66658,217.50233 190.52934,207.31304 189.2227,205.31527 C 188.64061,204.42529 184.6659,200.96821 184.85682,199.14375 C 185.34508,194.47769 175.8857,178.8995 171.65138,170.38822 C 167.58003,162.20452 170.41592,168.13591 158.63458,140.1235 C 157.04434,136.3424 156.80572,134.12988 155.64314,131.47258 C 154.48058,128.81529 154.3088,127.82798 153.81055,125.00461 C 153.3123,122.18123 151.97796,123.33678 151.97796,121.17773 C 151.97797,119.01867 151.9773,118.68321 150.98081,116.192 C 149.98432,113.70078 150.66552,112.21152 149.33687,110.88287 C 148.00821,109.55423 149.82131,105.5687 148.82482,104.73829 C 147.82834,103.90789 146.66883,99.267469 146.66883,99.267469 C 146.66883,99.267469 148.15479,98.274048 146.99223,97.111478 C 145.82965,95.948916 145.99509,91.96405 145.99509,91.96405 C 145.99508,91.96405 148.1686,91.950251 147.50428,91.452002 C 146.92301,91.016043 145.06438,88.1592 144.94404,87.786817 C 144.95545,87.792682 144.97459,87.790413 144.99794,87.813767 C 145.49618,88.312017 147.55818,86.762722 147.55818,86.762722 C 144.61747,84.688503 143.64796,72.138696 133.24779,59.758936 C 128.27195,53.83599 115.06906,45.273032 111.14888,43.966303 C 108.20875,42.986259 99.204462,40.038373 89.373377,39.869921 z M 120.71609,275.92398 C 121.27243,276.5049 121.84479,277.08138 122.44089,277.62182 C 122.14251,278.4784 121.47354,280.47575 121.57849,281.36785 C 121.71319,282.51279 123.07438,282.74255 123.54583,283.41605 C 124.01727,284.08953 123.46088,284.21135 122.76428,284.95219 C 121.8685,285.90487 118.38434,285.55854 116.83531,285.49119 C 115.28626,285.42384 113.04985,283.94682 111.82263,282.6345 C 110.67695,281.40935 111.94201,282.26356 111.79568,280.45156 C 114.32447,279.30743 116.77454,278.09749 119.07215,276.84027 C 119.61551,277.19543 120.03814,277.4138 120.25794,277.48707 C 120.82626,277.67651 120.51289,277.09775 119.9615,276.32823 C 120.21224,276.18703 120.46903,276.06658 120.71609,275.92398 z M 111.52618,283.25435 C 111.56369,283.27301 111.71461,283.43874 112.06518,283.84724 C 114.42734,286.59979 117.22765,286.8022 117.10481,286.62308 C 117.10481,286.62308 116.59067,287.32095 117.69771,288.13228 C 117.74533,288.22753 118.06056,288.35355 117.18566,288.42872 C 112.4809,288.83296 110.73595,288.07473 110.96023,287.35073 C 111.18451,286.62673 111.00943,286.71572 110.93328,286.05713 C 110.85935,285.41762 111.1399,285.42809 111.58008,285.08694 C 112.29092,284.53604 111.41366,283.19836 111.52618,283.25435 z M 90.505272,288.42872 C 91.4319,289.58297 92.344824,289.87402 92.742112,290.07267 C 93.313597,290.35841 93.694569,293.77551 92.742112,294.06125 C 92.453632,294.1478 91.592486,294.17607 90.640021,294.8428 C 89.687556,295.50951 89.610398,296.74887 90.181873,297.51084 C 91.24488,298.92818 89.493733,298.27245 89.588976,298.93918 C 89.684228,299.60591 86.5425,298.36288 83.8756,296.64844 C 82.002958,295.44459 81.198532,292.49398 80.938063,291.25846 C 84.003528,290.40002 87.22526,289.46144 90.505272,288.42872 z M 80.776363,291.31236 C 80.655473,292.72292 80.639199,296.38916 83.606101,299.12783 C 83.658578,299.17627 83.71466,299.21529 83.767801,299.26258 C 77.547845,300.86614 75.342439,297.53215 75.736735,296.72929 C 75.98495,296.22386 74.402944,295.73174 75.009088,294.65415 C 75.615232,293.57656 76.356582,294.45159 76.356582,293.30665 C 76.356582,293.01166 76.369699,292.76346 76.383532,292.49816 C 77.808909,292.11822 79.264281,291.73501 80.776363,291.31236 z "
       id="path1993" />
  </g>
</svg>
